<?xml version="1.0" ?><svg data-name="012" height="128" id="_012" viewBox="0 0 128 128" width="128" xmlns="http://www.w3.org/2000/svg"><title/><g style="opacity:0.30000000000000004"><path d="M107.33573,21.53018A29.703,29.703,0,0,0,75.50566,9.67392a19.13578,19.13578,0,0,1-12.48036-.9743A36.50788,36.50788,0,0,0,51.6286,5.83533a35.62006,35.62006,0,0,0-37.71491,28.084,37.32891,37.32891,0,0,0,.276,17.00962,20.92764,20.92764,0,0,1-3.23181,17.00886c-8.957,12.84321-6.42844,33.00206,12.947,43.22781a16.26141,16.26141,0,0,0,7.75439,1.54961,20.39514,20.39514,0,0,1,13.6568,5.23319,28.00482,28.00482,0,0,0,23.47244,6.60565,27.19669,27.19669,0,0,0,19.31655-14.28787,19.188,19.188,0,0,1,13.10536-10.00446,27.69157,27.69157,0,0,0,19.48118-15.1862,29.36378,29.36378,0,0,0-3.54856-30.91106A20.50117,20.50117,0,0,1,112.8912,40.467,30.45036,30.45036,0,0,0,107.33573,21.53018Z" style="fill:#97c1ff"/><path d="M14.99817,55.63819a10.5165,10.5165,0,0,1,20.29477-4.83727,5.61142,5.61142,0,0,1,9.09592,4.37489c0,.16149-.01083.32029-.02434.47837a8.37283,8.37283,0,0,1-2.78128,16.28544H17.73571a8.3734,8.3734,0,0,1-2.73755-16.30142Z" style="fill:#eef6ff"/><path d="M17.73573,69.14536H41.58325A8.40142,8.40142,0,0,0,49.877,62.13959a8.37037,8.37037,0,0,1-8.29372,9.8H17.73573A8.37155,8.37155,0,0,1,9.44184,62.139,8.40152,8.40152,0,0,0,17.73573,69.14536Z" style="fill:#5cbeff;opacity:0.30000000000000004"/><path d="M44.36454,58.44842c.01347-.15808.02433-.3169.02433-.47839a5.61142,5.61142,0,0,0-9.09595-4.37489,10.5073,10.5073,0,0,0-20.29476,4.83731,8.4,8.4,0,0,0-5.55632,6.50077,8.29479,8.29479,0,0,1,5.55632-9.295,10.5165,10.5165,0,0,1,20.29476-4.83731,5.61142,5.61142,0,0,1,9.09595,4.37489c0,.16149-.01086.32031-.02433.47839A8.29316,8.29316,0,0,1,49.877,64.93384,8.39919,8.39919,0,0,0,44.36454,58.44842Z" style="fill:#fff"/><path d="M41.583,72.93945H17.73535a9.3723,9.3723,0,0,1-3.793-17.96191c-.00879-.17041-.0127-.33643-.0127-.5a11.52156,11.52156,0,0,1,21.80566-5.15039,6.61526,6.61526,0,0,1,9.65039,5.65576A9.37138,9.37138,0,0,1,41.583,72.93945ZM25.45117,45a9.4439,9.4439,0,0,0-9.459,10.52881,1.001,1.001,0,0,1-.66992,1.05518,7.37353,7.37353,0,0,0,2.41309,14.35547H41.583a7.3726,7.3726,0,0,0,2.45215-14.34082,1.001,1.001,0,0,1-.667-1.03027c.01074-.12988.02051-.26025.02051-.39258a4.61124,4.61124,0,0,0-7.47559-3.59033,1.00029,1.00029,0,0,1-1.55566-.43164A9.56184,9.56184,0,0,0,25.45117,45Z" style="fill:#6d6daa"/><path d="M17.73571,55.17581a8.43611,8.43611,0,0,0-2.7605.46122" style="fill:#eef6ff"/><path d="M14.97559,56.6377a1.00046,1.00046,0,0,1-.32715-1.9458,9.43309,9.43309,0,0,1,3.08691-.51611,1,1,0,0,1,0,2,7.42013,7.42013,0,0,0-2.43262.40674A1.00933,1.00933,0,0,1,14.97559,56.6377Z" style="fill:#6d6daa"/><path d="M44.36583,55.64473a8.43594,8.43594,0,0,0-2.78258-.46892" style="fill:#eef6ff"/><path d="M44.36621,56.645a.99223.99223,0,0,1-.3291-.05615,7.43772,7.43772,0,0,0-2.4541-.41309,1,1,0,0,1,0-2,9.42454,9.42454,0,0,1,3.1123.52441,1.00032,1.00032,0,0,1-.3291,1.94482Z" style="fill:#6d6daa"/><path d="M35.32984,50.76693a5.61778,5.61778,0,0,0-1.526,1.82" style="fill:#eef6ff"/><path d="M33.80273,53.58691a1.00007,1.00007,0,0,1-.88379-1.46582,6.661,6.661,0,0,1,1.79785-2.14355.99975.99975,0,1,1,1.22656,1.5791,4.65364,4.65364,0,0,0-1.25488,1.49609A.9989.9989,0,0,1,33.80273,53.58691Z" style="fill:#6d6daa"/><path d="M94.678,28.91442a7.15162,7.15162,0,0,1,13.80121-3.28953A3.816,3.816,0,0,1,114.66482,28.6c0,.10982-.00737.21781-.01655.32531A5.69384,5.69384,0,0,1,112.7569,40H96.53968A5.69422,5.69422,0,0,1,94.678,28.91442Z" style="fill:#eef6ff"/><path d="M94.678,31.28966a7.15161,7.15161,0,0,1,13.8012-3.28954,3.816,3.816,0,0,1,6.18559,2.97505c0,.10988-.00739.21787-.01653.32536a5.70682,5.70682,0,0,1,3.69724,4.20865,5.65722,5.65722,0,0,0-3.69724-6.58394c.00913-.10749.01653-.21548.01653-.32529a3.816,3.816,0,0,0-6.18559-2.97505A7.14531,7.14531,0,0,0,94.678,28.91444,5.65836,5.65836,0,0,0,90.951,35.509,5.70741,5.70741,0,0,1,94.678,31.28966Z" style="fill:#fff"/><path d="M112.75689,37.62478H96.53966a5.7162,5.7162,0,0,1-5.58866-4.491A5.64239,5.64239,0,0,0,90.816,34.3,5.71188,5.71188,0,0,0,96.53966,40h16.21723a5.7119,5.7119,0,0,0,5.72376-5.7,5.641,5.641,0,0,0-.1351-1.166A5.71614,5.71614,0,0,1,112.75689,37.62478Z" style="fill:#5cbeff;opacity:0.30000000000000004"/><path d="M112.75684,41H96.54a6.69366,6.69366,0,0,1-2.90723-12.7373c-.001-.0459-.001-.0918-.001-.1377a8.15485,8.15485,0,0,1,15.28711-3.92383,4.822,4.822,0,0,1,6.73438,4.05762A6.69293,6.69293,0,0,1,112.75684,41Zm-10.9707-19a6.14655,6.14655,0,0,0-6.1543,6.125,6.27618,6.27618,0,0,0,.04.68115.9995.9995,0,0,1-.66992,1.0542A4.69442,4.69442,0,0,0,96.54,39h16.2168a4.69369,4.69369,0,0,0,1.56152-9.13037,1.00063,1.00063,0,0,1-.667-1.02588c.00684-.08057.01367-.16113.01367-.24365a2.816,2.816,0,0,0-4.56543-2.19092.99962.99962,0,0,1-1.55566-.43164A6.18105,6.18105,0,0,0,101.78613,22Z" style="fill:#6d6daa"/><path d="M96.53968,28.6a5.73687,5.73687,0,0,0-1.87725.31365" style="fill:#eef6ff"/><path d="M94.66211,29.91406a1.0003,1.0003,0,0,1-.32617-1.9458A6.74849,6.74849,0,0,1,96.54,27.6001a1,1,0,0,1,0,2,4.74275,4.74275,0,0,0-1.55176.25879A1.0036,1.0036,0,0,1,94.66211,29.91406Z" style="fill:#6d6daa"/><path d="M114.64916,28.91887A5.73676,5.73676,0,0,0,112.7569,28.6" style="fill:#eef6ff"/><path d="M114.64941,29.91943a.99646.99646,0,0,1-.3291-.05615,4.735,4.735,0,0,0-1.56348-.26318,1,1,0,0,1,0-2,6.73449,6.73449,0,0,1,2.22168.37451,1.00032,1.00032,0,0,1-.3291,1.94482Z" style="fill:#6d6daa"/><path d="M108.50435,25.60178a3.82031,3.82031,0,0,0-1.03777,1.23765" style="fill:#eef6ff"/><path d="M107.46582,27.83936A.99923.99923,0,0,1,106.582,26.374a4.86633,4.86633,0,0,1,1.30762-1.56152,1,1,0,1,1,1.22852,1.57813,2.85985,2.85985,0,0,0-.7666.91406A.99937.99937,0,0,1,107.46582,27.83936Z" style="fill:#6d6daa"/></g><path d="M63.31169,32.70718C53.22218,9.94663,25.887,20.86774,27.35712,41.10894,28.91919,62.60457,58.10051,77.27,63.31169,85.45479,68.679,77.27,98.094,62.20465,99.26429,41.10894,100.38984,20.84483,74.63731,10.03761,63.31169,32.70718Z" style="fill:#ff99b1;fill-rule:evenodd"/><path d="M76.371,23.66989c-7.82609,2.746-13.18079,15.24029-13.18079,15.24029S57.83547,23.12069,46.43958,22.5715c-9.75337-.47-15.10762,7.66054-14.40276,13.4142C33.808,50.44337,56.66842,56.004,62.36637,60.329c5.83524-4.9428,20.60669-14.39068,25.60643-23.89018C92.09179,28.61269,87.55564,19.74544,76.371,23.66989Z" style="fill:#fff;fill-rule:evenodd;opacity:0.5"/><path d="M62.641,77.8347C53.99108,66.50746,29.2771,60.74086,27.56245,36.37919a20.73225,20.73225,0,0,0-.20535,4.72973c1.56206,21.4956,30.74346,36.16114,35.95459,44.34592C68.67891,77.27006,98.094,62.20462,99.2643,41.10892a22.14437,22.14437,0,0,0-.2124-4.46619C96.16361,56.65044,68.61351,68.97885,62.641,77.8347Z" style="fill:#d63c74;fill-rule:evenodd;opacity:0.30000000000000004"/><path d="M63.31152,86.45508h-.00684a1.001,1.001,0,0,1-.83691-.46289c-1.51172-2.375-5.38281-5.50879-9.86523-9.1377-10.60547-8.585-25.12891-20.34277-26.24219-35.67334A20.55216,20.55216,0,0,1,41.665,19.56055c6.9873-1.74707,16.15527.30762,21.69434,10.94043C69.49219,19.832,78.7002,17.83105,85.50391,19.63672c9.25684,2.45654,15.32617,11.30908,14.75879,21.52783-.83984,15.13037-15.52148,27.03564-26.24121,35.729-4.46875,3.624-8.3291,6.75391-9.874,9.10938A.99889.99889,0,0,1,63.31152,86.45508Zm-17.209-65.44092a16.34631,16.34631,0,0,0-3.95215.48633,18.55428,18.55428,0,0,0-13.7959,19.53613C29.40527,55.50244,43.54,66.94531,53.86035,75.2998c4.13281,3.3457,7.51855,6.08691,9.46,8.47363,1.95605-2.36328,5.32715-5.09766,9.44141-8.43359,10.42969-8.457,24.71387-20.04,25.50488-34.28662.59961-10.80664-6.46191-17.67529-13.27637-19.4834-9.76465-2.59277-17.1377,4.28662-20.78418,11.584a.97257.97257,0,0,1-.918.55273.99951.99951,0,0,1-.89062-.59424C58.42676,24.1543,51.92285,21.01416,46.10254,21.01416Z" style="fill:#6d6daa"/><path d="M18.92308,17.38462a5.54815,5.54815,0,0,0,3.69229,3.69233q2.76925.92306,0,1.84613a5.54815,5.54815,0,0,0-3.69229,3.69233q-.92306,2.76919-1.84616,0a5.54807,5.54807,0,0,0-3.69229-3.69233q-2.76925-.92306,0-1.84613a5.54808,5.54808,0,0,0,3.69229-3.69233Q18,14.61542,18.92308,17.38462Z" style="fill:#ff99b1"/><path d="M108.76924,105.15385a4.62346,4.62346,0,0,0,3.07691,3.07694q2.30771.76922,0,1.53844a4.62346,4.62346,0,0,0-3.07691,3.07694q-.76922,2.30766-1.53847,0a4.6234,4.6234,0,0,0-3.07691-3.07694q-2.30771-.76922,0-1.53844a4.6234,4.6234,0,0,0,3.07691-3.07694Q108,102.84618,108.76924,105.15385Z" style="fill:#ff9797"/><path d="M46.61539,111.92306a3.69876,3.69876,0,0,0,2.46153,2.46155q1.84616.61538,0,1.23075a3.69876,3.69876,0,0,0-2.46153,2.46155q-.61538,1.84613-1.23078,0a3.69872,3.69872,0,0,0-2.46153-2.46155q-1.84616-.61538,0-1.23075a3.69872,3.69872,0,0,0,2.46153-2.46155Q46,110.07694,46.61539,111.92306Z" style="fill:#c9c1f5"/><path d="M111.03847,58.80768a3.23642,3.23642,0,0,0,2.15384,2.15386q1.6154.53846,0,1.07691a3.23642,3.23642,0,0,0-2.15384,2.15386q-.53846,1.61537-1.07693,0a3.23638,3.23638,0,0,0-2.15384-2.15386q-1.6154-.53846,0-1.07691a3.23638,3.23638,0,0,0,2.15384-2.15386Q110.5,57.19232,111.03847,58.80768Z" style="fill:#96d7ff"/><path d="M84.61539,5.92308a3.69876,3.69876,0,0,0,2.46153,2.46155q1.84616.61538,0,1.23075a3.69876,3.69876,0,0,0-2.46153,2.46155q-.61538,1.84613-1.23078,0a3.69872,3.69872,0,0,0-2.46153-2.46155q-1.84616-.61538,0-1.23075a3.69872,3.69872,0,0,0,2.46153-2.46155Q84,4.07695,84.61539,5.92308Z" style="fill:#c9c1f5"/><path d="M65.61539,80.92306a3.69876,3.69876,0,0,0,2.46153,2.46155q1.84616.61538,0,1.23075a3.69876,3.69876,0,0,0-2.46153,2.46155q-.61538,1.84613-1.23078,0a3.69872,3.69872,0,0,0-2.46153-2.46155q-1.84616-.61538,0-1.23075a3.69872,3.69872,0,0,0,2.46153-2.46155Q65,79.07694,65.61539,80.92306Z" style="fill:#ff99b1"/><path d="M25.55718,105.899l6.27548-1.98134c9.28771-2.93234,27.54235,2.3597,38.2566,2.46947,2.45377.02514,22.78406-8.94746,23.9881-9.90324,3.34822-2.65786,11.892-8.44006,17.2195-12.66906,4.60174-3.65292,1.88675-7.21122-2.50093-6.52894a16.27608,16.27608,0,0,0-8.70137,4.986c-2.71784.66187-8.00581,2.18248-9.90706,4.868-2.056-.15576-20.00476,4.61356-20.00476,4.61356a13.82634,13.82634,0,0,1,8.43926-.495c.64254.1515,7.91151-2.29477,9.58-3.06758,1.901-.89066,3.40348-2.48663,3.22392-4.57572-.30879-3.57284-6.60979-5.08775-12.8353-3.08662-1.42824.45909-3.10469,1.7781-4.878,1.68762-4.64115-.23682-7.85415-2.16746-12.77108-2.85753-9.79269-1.37437-15.38333.504-29.58336,4.98729L19.89507,87.96512C17.80227,94.4295,25.29442,98.42085,25.55718,105.899Z" style="fill:#f9e2dc"/><path d="M102.31252,80.444c2.98929-1.61789,5.63355-.47048,6.56209,1.49354-1.71229,1.54642-3.122,7.1933-1.13842,9.90381,1.90549-1.09249,2.23646-6.97533,3.56067-8.02651,4.6018-3.653,2.07822-7.11114-2.745-6.30718A15.68959,15.68959,0,0,0,102.31252,80.444Z" style="fill:#fff;opacity:0.5"/><g style="opacity:0.30000000000000004"><path d="M68.24867,101.21054c-4.641-1.18917-25.56692-6.42716-37.302-2.7221l-6.6983,2.32469a12.97005,12.97005,0,0,1,1.30883,5.0859l6.27546-1.98133c9.28774-2.93237,27.54237,2.4847,38.25661,2.46945,2.454-.00349,22.784-8.94745,23.98812-9.90321.67081-.53251,1.55678-1.2357,2.57693-2.04558l10.22071-7.736c-5.0432,1.40794-10.43751,3.375-15.125,7.1875C80.94379,98.59153,71.538,102.05343,68.24867,101.21054Z" style="fill:#cc7e54"/><path d="M33.3,86.1274a44.68492,44.68492,0,0,0,8.86667,12.11667c.88686.79818-8.5,2.66667-8.5,2.66667L30,86.8274Z" style="fill:#cc7e54"/><path d="M79.16615,94.3648c4.55953-1.03866,12.08385-3.9124,13.2401-7.9124.05224-.18071-1.37253.55239-1.5625.40625-2.22617.034-9.594,3.08635-11.76042,4.51042a8.60629,8.60629,0,0,0-7.41667-.08333s-2.46352,1.31664-2.45863,1.25372c-2.79942.58257-7.83837,2.70514-7.79647,2.97043C61.72878,97.52031,70.55633,96.32607,79.16615,94.3648Z" style="fill:#cc7e54"/></g><path d="M72.06439,85.96121c3.55621-.41477,6.4483-1.96988,8.80686-2.45386,3.12717-.64169,2.64338-.01465,2.7313.68867a26.70063,26.70063,0,0,0,1.74912,5.08568c1.24984-.44041,2.32642-.84818,2.85038-1.09085,1.901-.89066,3.40345-2.48664,3.22389-4.57573-.3088-3.57286-6.6098-5.08773-12.8353-3.08662-1.42824.45912-3.10468,1.77811-4.878,1.68762-4.64115-.23682-7.85418-2.16743-12.7711-2.85752-9.7927-1.37439-15.38331.504-29.58336,4.98728L19.89507,87.96508a7.34469,7.34469,0,0,0,.00263,4.58453c4.673-1.57779,13.02347-4.20376,17.199-5.3608C48.02088,84.16163,66.05232,86.66235,72.06439,85.96121Z" style="fill:#fff;opacity:0.5"/><path d="M61.60742,96.01758a1.00022,1.00022,0,0,1-.11133-1.99414c3.44531-.38867,8.13574-3.10547,8.18262-3.13281a.96894.96894,0,0,1,.17676-.082,14.72962,14.72962,0,0,1,8.88867-.54785,71.17251,71.17251,0,0,0,9.03711-2.97754c.85254-.39941,2.82324-1.55078,2.64844-3.582A2.5125,2.5125,0,0,0,89.165,81.84375c-2.18652-1.45312-6.4082-1.60352-10.26855-.36328a11.06554,11.06554,0,0,0-1.38086.6123,7.95121,7.95121,0,0,1-3.85352,1.12207,28.38474,28.38474,0,0,1-7.09473-1.47266,37.19315,37.19315,0,0,0-5.76465-1.39355c-9.33594-1.31055-14.83105.42773-28.11719,4.627L18.0625,89.5918a.99946.99946,0,0,1-.60156-1.90625L32.083,83.06836c13.59277-4.29395,19.21973-6.07129,28.99707-4.7002a38.82153,38.82153,0,0,1,6.06445,1.459,26.81236,26.81236,0,0,0,6.61914,1.38965,6.33688,6.33688,0,0,0,2.86523-.917,12.28419,12.28419,0,0,1,1.65625-.72363c4.46875-1.43848,9.28613-1.19336,11.9873.60156a4.46736,4.46736,0,0,1,2.14941,3.35156c.19629,2.28027-1.22266,4.36133-3.7959,5.56641-.84473.3916-9.01758,3.42676-10.2334,3.13672a12.70132,12.70132,0,0,0-7.79395.43555c-.708.40527-5.24512,2.93359-8.87793,3.34375A1.11451,1.11451,0,0,1,61.60742,96.01758Zm17.0791-5.752Z" style="fill:#6d6daa"/><path d="M69.19141,108.03809a17.53724,17.53724,0,0,1-3.9668-.64648,31.01987,31.01987,0,0,0-3.19043-.64551c-1.92285-.25391-3.958-.56055-6.043-.875-8.57227-1.293-18.29-2.75684-23.85742-1l-6.40137,2.02148a1.00039,1.00039,0,1,1-.60156-1.9082l6.40137-2.02051c6.00879-1.89648,15.96777-.39551,24.75684.92969,2.07324.3125,4.0957.61719,6.00684.87012a32.62238,32.62238,0,0,1,3.39453.68262A12.26012,12.26012,0,0,0,69.79,106.002a6.016,6.016,0,0,0,3.13281-1.124,12.61575,12.61575,0,0,1,2.46484-1.30078c3.47461-1.374,7.95313-3.29,11.55176-4.83008l1.9248-.82324c1.10645-.47168,2.0332-.78027,2.77734-1.02734a16.30548,16.30548,0,0,0,1.60645-.59375,12.83393,12.83393,0,0,0,2.083-1.71191,29.35428,29.35428,0,0,1,2.56738-2.18359l2.3584-1.69043c3.499-2.50293,7.46582-5.34082,10.418-7.68555,1.60547-1.27344,2.31348-2.60645,1.89355-3.56543-.42383-.9668-1.91309-1.46-3.61914-1.19141a15.19339,15.19339,0,0,0-8.09668,4.64941.99414.99414,0,0,1-.42578.291,39.90448,39.90448,0,0,0-9.80273,4.752.99974.99974,0,0,1-1.123-1.6543A41.27184,41.27184,0,0,1,99.5166,81.415a17.2207,17.2207,0,0,1,9.126-5.11719c2.64648-.40918,4.958.54,5.75781,2.36621.38672.88477.91992,3.2334-2.48145,5.93359-2.99121,2.376-6.98047,5.22852-10.499,7.74609l-2.35352,1.68652a27.55786,27.55786,0,0,0-2.38184,2.0332,12.50668,12.50668,0,0,1-2.59863,2.05566,17.69764,17.69764,0,0,1-1.8125.6748c-.74707.248-1.59277.53027-2.624.96973l-1.92285.82227c-3.61035,1.54395-8.10352,3.4668-11.60254,4.85059a10.62133,10.62133,0,0,0-2.11133,1.11816,7.97284,7.97284,0,0,1-3.96875,1.43164A6.68324,6.68324,0,0,1,69.19141,108.03809Z" style="fill:#6d6daa"/><path d="M90.88379,89.29785a.99983.99983,0,0,1-.93262-.63965.96614.96614,0,0,0-.24121-.37012,1.01767,1.01767,0,0,1-.15234-1.39551.98452.98452,0,0,1,1.3623-.19727,2.85786,2.85786,0,0,1,.89648,1.24219,1.00025,1.00025,0,0,1-.93262,1.36035Z" style="fill:#6d6daa"/><path d="M100.28223,83.92773a1.166,1.166,0,1,1,.19531-2.23047,1.49538,1.49538,0,0,1,.80469,1.19141.99978.99978,0,0,1-.96,1.03809C100.30859,83.92773,100.2959,83.92773,100.28223,83.92773Zm-.77148-.48047h0Zm-.22656-.48047v0Z" style="fill:#6d6daa"/><path d="M81.334,93.377c-.03027,0-.06152-.001-.0918-.00391a1.00056,1.00056,0,0,1-.90527-1.08691,1.2087,1.2087,0,0,0-.0752-.67285.97081.97081,0,0,1,.17578-1.37793,1.02855,1.02855,0,0,1,1.42578.18359,2.87175,2.87175,0,0,1,.46582,2.04883A1.00017,1.00017,0,0,1,81.334,93.377Z" style="fill:#6d6daa"/><path d="M75.168,84.74414a.99894.99894,0,0,1-.8584-.48535,5.191,5.191,0,0,0-1.1875-1.23633,1.00008,1.00008,0,0,1,1.17969-1.61523,7.15388,7.15388,0,0,1,1.72266,1.82227,1,1,0,0,1-.85645,1.51465Z" style="fill:#6d6daa"/><path d="M36.71788,111.1978l-10.73024,2.72575a2.48473,2.48473,0,0,1-2.88273-1.41419,167.36984,167.36984,0,0,1-9.03335-27.40307,2.47582,2.47582,0,0,1,1.79483-2.98913l12.64811-3.21294a2.4756,2.4756,0,0,1,3.009,1.78992l6.98435,27.4947A2.4756,2.4756,0,0,1,36.71788,111.1978Z" style="fill:#97c1ff;fill-rule:evenodd"/><path d="M28.51449,78.90421,15.8664,82.11714a2.47589,2.47589,0,0,0-1.79487,2.98917c.26226,1.07293,1.17117,4.61627,1.13441,4.46574A2.47588,2.47588,0,0,1,17.00082,86.583L29.64892,83.37a2.47557,2.47557,0,0,1,3.009,1.78992l-1.13443-4.46581A2.47557,2.47557,0,0,0,28.51449,78.90421Z" style="fill:#fff;fill-rule:evenodd;opacity:0.5"/><path d="M23.10489,112.50931a2.48471,2.48471,0,0,0,2.88273,1.41423l10.73026-2.72576a2.47557,2.47557,0,0,0,1.78992-3.009l-1.06845-4.20606a2.47557,2.47557,0,0,1-1.78992,3.009l-10.73026,2.72576a2.48472,2.48472,0,0,1-2.88273-1.41423Z" style="fill:#2c4b75;fill-rule:evenodd;opacity:0.2"/><path d="M25.375,115.001a3.48475,3.48475,0,0,1-3.18457-2.08594,163.86541,163.86541,0,0,1-9.09082-27.57129,3.48864,3.48864,0,0,1,2.52051-4.19531l12.64844-3.21289a3.475,3.475,0,0,1,4.22363,2.5127l6.98438,27.49414a3.47444,3.47444,0,0,1-2.5127,4.22461h0L26.2334,114.89258A3.45887,3.45887,0,0,1,25.375,115.001Zm3.752-35.17383a1.51111,1.51111,0,0,0-.36621.0459L16.1123,83.08594a1.4825,1.4825,0,0,0-1.06934,1.7832,161.82483,161.82483,0,0,0,8.97559,27.23535,1.4809,1.4809,0,0,0,1.72266.84961l10.73047-2.72461a1.47743,1.47743,0,0,0,1.06738-1.79492L30.55469,80.94043A1.479,1.479,0,0,0,29.127,79.82715Zm7.59082,31.37109h0Z" style="fill:#6d6daa"/><path d="M30.13965,107.51953a.96266.96266,0,0,1-.71-.2998.99416.99416,0,0,1-.2998-.7002,1.09,1.09,0,0,1,.08008-.38965.8751.8751,0,0,1,.21973-.32031.44525.44525,0,0,1,.15039-.12012.93556.93556,0,0,1,.16992-.09961,1.233,1.233,0,0,1,.18945-.0498.99162.99162,0,0,1,.90039.26953,1.01239,1.01239,0,0,1,.21973.32031,1.07507,1.07507,0,0,1,.07031.38965.98024.98024,0,0,1-.29.7002A.99354.99354,0,0,1,30.13965,107.51953Z" style="fill:#6d6daa"/></svg>