<?xml version="1.0" ?><svg data-name="004" id="_004" viewBox="0 0 128 128" xmlns="http://www.w3.org/2000/svg"><defs><style>.cls-1{opacity:0.3;}.cls-2{fill:#97c1ff;}.cls-3{fill:#fff;}.cls-4{fill:#eef6ff;}.cls-5{fill:#5cbeff;}.cls-6{fill:#6d6daa;}.cls-7{fill:#b1f1a8;}.cls-8{opacity:0.5;}.cls-9{fill:#efdcd2;}.cls-10{fill:#cc7e54;}.cls-11{fill:#f9e2dc;}.cls-12{fill:#d6b5b0;}.cls-13{fill:#ffd599;}.cls-14{fill:#ff99b1;}.cls-15{fill:#89dbba;}.cls-16{fill:#ff9797;}.cls-17{fill:#9eb2cc;}.cls-18{fill:#616177;}.cls-19{fill:#c9c1f5;}.cls-20{fill:#ced8ee;}.cls-21{fill:#4e4e96;}.cls-22{fill:#eff7ff;}.cls-23{fill:#939fc6;}.cls-24{fill:#fff27d;}</style></defs><title/><g class="cls-1"><path class="cls-2" d="M2,45.69a30,30,0,0,1,23.51-25A19.69,19.69,0,0,0,36.48,14.1,37,37,0,0,1,100.8,29.78a19.57,19.57,0,0,0,10.43,13.17A28,28,0,1,1,73.56,80.29,9.41,9.41,0,0,0,65,75h-.86a12.39,12.39,0,0,0-12,9.74A20,20,0,0,1,26.1,98.88,20,20,0,0,1,12.75,81,21.38,21.38,0,0,0,8.23,68.65,29.91,29.91,0,0,1,2,45.69Z"/><path class="cls-3" d="M56.24,16a1.09,1.09,0,0,1-.39-.08.87.87,0,0,1-.32-.22,1,1,0,0,1-.22-.32,1.08,1.08,0,0,1,0-.19.63.63,0,0,1,0-.19,1,1,0,0,1,.07-.39,1.08,1.08,0,0,1,.54-.54,1,1,0,0,1,1.09.22,1,1,0,0,1,.3.71,1,1,0,0,1-1,1Z"/><path class="cls-3" d="M68.24,20h-6a1,1,0,0,1,0-2h6a1,1,0,0,1,0,2Z"/><path class="cls-3" d="M75.24,16h-15a1,1,0,1,1,0-2h15a1,1,0,0,1,0,2Z"/><path class="cls-3" d="M65.23,24h-7a1,1,0,0,1,0-2h7a1,1,0,0,1,0,2Z"/><path class="cls-3" d="M58.23,20h-4a1,1,0,0,1,0-2h4a1,1,0,0,1,0,2Z"/><path class="cls-3" d="M56.24,16a1.09,1.09,0,0,1-.39-.08.87.87,0,0,1-.32-.22,1,1,0,0,1-.22-.32,1.08,1.08,0,0,1,0-.19.63.63,0,0,1,0-.19,1,1,0,0,1,.07-.39,1.08,1.08,0,0,1,.54-.54,1,1,0,0,1,1.09.22,1,1,0,0,1,.3.71,1,1,0,0,1-1,1Z"/><path class="cls-3" d="M68.24,20h-6a1,1,0,0,1,0-2h6a1,1,0,0,1,0,2Z"/><path class="cls-3" d="M75.24,16h-15a1,1,0,1,1,0-2h15a1,1,0,0,1,0,2Z"/><path class="cls-3" d="M65.23,24h-7a1,1,0,0,1,0-2h7a1,1,0,0,1,0,2Z"/><path class="cls-3" d="M58.23,20h-4a1,1,0,0,1,0-2h4a1,1,0,0,1,0,2Z"/><path class="cls-4" d="M17.33,9.64A6,6,0,0,1,29,6.87a3.21,3.21,0,0,1,5.21,2.51c0,.09,0,.18,0,.27A4.79,4.79,0,0,1,32.56,19H18.9a4.8,4.8,0,0,1-1.57-9.34Z"/><path class="cls-3" d="M17.33,11.64A6,6,0,0,1,29,8.87a3.21,3.21,0,0,1,5.21,2.51c0,.09,0,.18,0,.27a4.81,4.81,0,0,1,3.11,3.54,4.76,4.76,0,0,0-3.11-5.54c0-.09,0-.18,0-.27A3.21,3.21,0,0,0,29,6.87,6,6,0,0,0,17.33,9.64a4.76,4.76,0,0,0-3.14,5.55A4.81,4.81,0,0,1,17.33,11.64Z"/><g class="cls-1"><path class="cls-5" d="M32.56,17H18.9a4.81,4.81,0,0,1-4.71-3.78,4.75,4.75,0,0,0-.11,1A4.81,4.81,0,0,0,18.9,19H32.56a4.81,4.81,0,0,0,4.82-4.8,4.75,4.75,0,0,0-.11-1A4.81,4.81,0,0,1,32.56,17Z"/></g><path class="cls-6" d="M32.56,20H18.9A5.79,5.79,0,0,1,16.29,9V9a7,7,0,0,1,13.1-3.5A4.21,4.21,0,0,1,35.15,9a5.79,5.79,0,0,1-2.59,11ZM23.32,4a5,5,0,0,0-5,5,4.92,4.92,0,0,0,0,.55,1,1,0,0,1-.67,1.06A3.8,3.8,0,0,0,18.9,18H32.56a3.79,3.79,0,0,0,1.26-7.38,1,1,0,0,1-.67-1c0-.06,0-.12,0-.19a2.21,2.21,0,0,0-3.59-1.72A1,1,0,0,1,28,7.22,5,5,0,0,0,23.32,4Z"/><path class="cls-4" d="M18.9,9.37a4.83,4.83,0,0,0-1.58.26"/><path class="cls-6" d="M17.32,10.64A1,1,0,0,1,17,8.69a5.82,5.82,0,0,1,1.91-.32,1,1,0,0,1,0,2,3.83,3.83,0,0,0-1.25.21A1,1,0,0,1,17.32,10.64Z"/><path class="cls-4" d="M34.15,9.64a4.83,4.83,0,0,0-1.59-.27"/><path class="cls-6" d="M34.15,10.64a1,1,0,0,1-.33-.06,3.84,3.84,0,0,0-1.26-.21,1,1,0,1,1,0-2,5.83,5.83,0,0,1,1.92.32,1,1,0,0,1-.33,1.94Z"/><path class="cls-4" d="M29,6.85a3.22,3.22,0,0,0-.87,1"/><path class="cls-6" d="M28.1,8.89a1,1,0,0,1-.88-1.47,4.25,4.25,0,0,1,1.14-1.37,1,1,0,0,1,1.23,1.58,2.24,2.24,0,0,0-.6.72A1,1,0,0,1,28.1,8.89Z"/><path class="cls-4" d="M89.3,19.74a6,6,0,0,1,8.91-6.64A7.87,7.87,0,0,1,112.31,17,5.62,5.62,0,0,1,110.48,28h-21a4.12,4.12,0,0,1-.18-8.24Z"/><path class="cls-3" d="M89.3,22a5.72,5.72,0,0,1-.15-2.23A4.1,4.1,0,0,0,85.52,25,4.11,4.11,0,0,1,89.3,22Z"/><path class="cls-3" d="M95.1,14.48a6,6,0,0,1,3.11.87,7.87,7.87,0,0,1,14.1,3.94A5.63,5.63,0,0,1,116,23.51,5.62,5.62,0,0,0,112.31,17a7.87,7.87,0,0,0-14.1-3.94,6,6,0,0,0-9.11,5.13,5.79,5.79,0,0,0,.12,1.09A6,6,0,0,1,95.1,14.48Z"/><path class="cls-5" d="M89.3,17.49c0-.14-.06-.28-.08-.42,0,.15,0,.3-.07.45Z"/><g class="cls-1"><path class="cls-5" d="M110.48,25.73h-21a4.12,4.12,0,0,1-4-3,4.08,4.08,0,0,0-.17,1.1A4.12,4.12,0,0,0,89.48,28h21A5.57,5.57,0,0,0,116,21.26,5.63,5.63,0,0,1,110.48,25.73Z"/></g><path class="cls-6" d="M110.48,29h-21a5.12,5.12,0,0,1-1.34-10.07,6.67,6.67,0,0,1,0-.68A7,7,0,0,1,98,11.84a8.87,8.87,0,0,1,15.26,4.49A6.62,6.62,0,0,1,110.48,29ZM95.1,13.23a5,5,0,0,0-4.83,6.26,1,1,0,0,1-.93,1.25A3.12,3.12,0,0,0,89.48,27h21A4.62,4.62,0,0,0,112,18a1,1,0,0,1-.67-.84A6.87,6.87,0,0,0,99,13.71a1,1,0,0,1-1.32.25A5,5,0,0,0,95.1,13.23Z"/><path class="cls-6" d="M112,21.29A1,1,0,0,1,111,20a6.88,6.88,0,0,0-6.54-9,1,1,0,1,1,0-2,8.88,8.88,0,0,1,8.44,11.62A1,1,0,0,1,112,21.29Z"/><path class="cls-6" d="M92.19,21.75a1,1,0,0,1-.66-.25,3.12,3.12,0,0,0-2.06-.77,1,1,0,0,1,0-2A5.12,5.12,0,0,1,92.85,20a1,1,0,0,1-.66,1.75Z"/><path class="cls-6" d="M100,15.73a1,1,0,0,1-.81-.42,5,5,0,0,0-4.07-2.09,1,1,0,0,1,0-2,7,7,0,0,1,5.69,2.92,1,1,0,0,1-.81,1.58Z"/><path class="cls-6" d="M85.22,126h-38a1,1,0,0,1,0-2h38a1,1,0,0,1,0,2Z"/><path class="cls-6" d="M117.22,126h-29a1,1,0,0,1,0-2h29a1,1,0,0,1,0,2Z"/><path class="cls-6" d="M12.21,126h-6a1,1,0,0,1,0-2h6a1,1,0,1,1,0,2Z"/><path class="cls-6" d="M44.23,126h-29a1,1,0,0,1,0-2h29a1,1,0,0,1,0,2Z"/><path class="cls-6" d="M114.22,116h-77a1,1,0,0,1,0-2h77a1,1,0,0,1,0,2Z"/><path class="cls-6" d="M127.22,116h-10a1,1,0,0,1,0-2h10a1,1,0,0,1,0,2Z"/><path class="cls-6" d="M34.23,116h-30a1,1,0,1,1,0-2h30a1,1,0,0,1,0,2Z"/></g><path class="cls-7" d="M88.4,79.9H72v2.87H67.26L66,72.19a7,7,0,0,1,0-1.78l.92-7.74a5,5,0,0,1,2.82-4l5-2.27c.5,1.64,2.95,3,5.5,3a6.05,6.05,0,0,0,5.46-3.13h.05l5,2.38a5,5,0,0,1,2.78,3.95l.92,7.78a7,7,0,0,1,0,1.78L93.18,82.76H88.4Z"/><g class="cls-8"><path class="cls-3" d="M66.09,72.92l.83-7a5,5,0,0,1,2.82-4l4.06-2c.84,1.56,3.83,2.78,6.39,2.78A9.34,9.34,0,0,0,86.62,60l4.11,2a5,5,0,0,1,2.78,3.95l.83,7,.09-.73a7,7,0,0,0,0-1.78l-.92-7.78a5,5,0,0,0-2.78-3.95l-5-2.38h-.05a6.05,6.05,0,0,1-5.46,3.13c-2.55,0-5-1.38-5.5-3l-5,2.27a5,5,0,0,0-2.82,4L66,70.41a7,7,0,0,0,0,1.78Z"/></g><polygon class="cls-3" points="71.17 82.76 67.22 82.76 66.85 79.18 71.17 79.18 71.17 82.76"/><polygon class="cls-3" points="89.32 82.76 93.27 82.88 93.66 79.18 89.32 79.18 89.32 82.76"/><path class="cls-9" d="M84.89,53.69a2.13,2.13,0,0,0,.94,2.63c-.72,1.65-3.53,2.55-5.5,3.13-2-.59-5-1.39-5.5-3a2.23,2.23,0,0,0,.92-2.74Z"/><g class="cls-1"><path class="cls-10" d="M84.89,53.69H75.75a2.6,2.6,0,0,1,0,1.86l.57.6a4.17,4.17,0,0,0,3,1.31h2a4.17,4.17,0,0,0,3-1.31l.57-.6A2.58,2.58,0,0,1,84.89,53.69Z"/></g><path class="cls-11" d="M67.22,83h4a0,0,0,0,1,0,0v5.6a0,0,0,0,1,0,0h-.64a3.36,3.36,0,0,1-3.36-3.36V83A0,0,0,0,1,67.22,83Z"/><path class="cls-6" d="M71.22,89.6h-.64a4.37,4.37,0,0,1-4.36-4.36V83a1,1,0,0,1,1-1h4a1,1,0,0,1,1,1v5.6A1,1,0,0,1,71.22,89.6Zm-3-5.6v1.24a2.37,2.37,0,0,0,2,2.33V84Z"/><path class="cls-11" d="M92.58,83h.64a0,0,0,0,1,0,0v5.6a0,0,0,0,1,0,0h-4a0,0,0,0,1,0,0V86.36A3.36,3.36,0,0,1,92.58,83Z" transform="translate(182.44 171.6) rotate(180)"/><path class="cls-6" d="M89.86,89.6h-.64a1,1,0,0,1-1-1V83a1,1,0,0,1,1-1h4a1,1,0,0,1,1,1v2.24A4.37,4.37,0,0,1,89.86,89.6Zm.36-5.6v3.57a2.37,2.37,0,0,0,2-2.33V84Z"/><path class="cls-6" d="M89.22,80.9a1,1,0,0,1-1-1V67.41a2.4,2.4,0,0,0-.71-1.71,1,1,0,0,1,1.42-1.41,4.39,4.39,0,0,1,1.29,3.12V79.9A1,1,0,0,1,89.22,80.9Z"/><path class="cls-6" d="M71.22,80.9a1,1,0,0,1-1-1V67.41a4.38,4.38,0,0,1,1.29-3.12,1,1,0,0,1,1.41,1.41,2.4,2.4,0,0,0-.71,1.71V79.9A1,1,0,0,1,71.22,80.9Z"/><path class="cls-6" d="M93.18,84H88.4a1,1,0,0,1,0-2h3.88l1.15-9.93a6,6,0,0,0,0-1.53l-.92-7.79a4,4,0,0,0-2.21-3.16l-5-2.38a1,1,0,0,1,.86-1.81l5,2.38a6,6,0,0,1,3.34,4.73l.92,7.78a8,8,0,0,1,0,2l-1.25,10.8A1,1,0,0,1,93.18,84Z"/><path class="cls-6" d="M72,84H67.26a1,1,0,0,1-1-.88L65,72.3a8,8,0,0,1,0-2l.92-7.74a6,6,0,0,1,3.4-4.77l5-2.27.1,0a1,1,0,0,1,.67,1.88h0L70.17,59.6a4,4,0,0,0-2.25,3.18L67,70.53a6,6,0,0,0,0,1.53L68.15,82H72a1,1,0,0,1,0,2Z"/><path class="cls-6" d="M80.33,60.45c-3,0-5.81-1.64-6.45-3.73a1,1,0,0,1,.43-1.14,1.44,1.44,0,0,0,.54-1.65,1,1,0,0,1,1.84-.79,3.33,3.33,0,0,1-.61,3.51,5.56,5.56,0,0,0,4.26,1.79,5.34,5.34,0,0,0,4.21-2A3.44,3.44,0,0,1,84,53a1,1,0,1,1,1.85.77,1.55,1.55,0,0,0,.55,1.72,1,1,0,0,1,.34,1.22A7.07,7.07,0,0,1,80.33,60.45Z"/><polygon class="cls-2" points="71.22 114 78.22 114 78.22 87 82.22 87 82.22 114 89.22 114 89.22 79.9 71.22 79.9 71.22 114"/><path class="cls-6" d="M89.22,115h-7a1,1,0,0,1-1-1V88h-2v26a1,1,0,0,1-1,1h-7a1,1,0,0,1-1-1V79.9a1,1,0,0,1,1-1h18a1,1,0,0,1,1,1V114A1,1,0,0,1,89.22,115Zm-6-2h5V80.9h-16V113h5V87a1,1,0,0,1,1-1h4a1,1,0,0,1,1,1Z"/><path class="cls-6" d="M71.22,85.7A1,1,0,0,1,70.51,84l4.83-4.8a1,1,0,0,1,1.41,1.42l-4.83,4.8A1,1,0,0,1,71.22,85.7Z"/><path class="cls-6" d="M89.14,85.4a1,1,0,0,1-.71-.29l-4.5-4.5a1,1,0,0,1,1.41-1.41l4.5,4.5a1,1,0,0,1-.71,1.71Z"/><path class="cls-6" d="M93.22,80h-4a1,1,0,0,1,0-2h4a1,1,0,0,1,0,2Z"/><path class="cls-6" d="M71.22,80H67.45a1,1,0,0,1,0-2h3.77a1,1,0,0,1,0,2Z"/><path class="cls-6" d="M66.06,72.3a1,1,0,0,1-.34-1.94l1.72-.61a1,1,0,0,1,.67,1.88l-1.72.61A1,1,0,0,1,66.06,72.3Z"/><path class="cls-6" d="M94.37,72.3a1,1,0,0,1-.33-.06l-1.63-.57a1,1,0,0,1,.66-1.89l1.63.57a1,1,0,0,1-.33,1.94Z"/><path class="cls-12" d="M73.92,109.91h.6a3.7,3.7,0,0,1,3.7,3.7V115a0,0,0,0,1,0,0H70.89a.67.67,0,0,1-.67-.67v-.72A3.7,3.7,0,0,1,73.92,109.91Z"/><path class="cls-6" d="M78.22,116H70.89a1.67,1.67,0,0,1-1.67-1.67v-.72a4.7,4.7,0,0,1,4.7-4.7h.6a4.7,4.7,0,0,1,4.7,4.7V115A1,1,0,0,1,78.22,116Zm-7-2h6v-.39a2.7,2.7,0,0,0-2.7-2.7h-.6a2.7,2.7,0,0,0-2.7,2.7Z"/><path class="cls-12" d="M85.92,109.91h.6a3.7,3.7,0,0,1,3.7,3.7v.72a.67.67,0,0,1-.67.67H82.22a0,0,0,0,1,0,0v-1.39A3.7,3.7,0,0,1,85.92,109.91Z"/><path class="cls-6" d="M89.55,116H82.22a1,1,0,0,1-1-1v-1.39a4.7,4.7,0,0,1,4.7-4.7h.6a4.7,4.7,0,0,1,4.7,4.7v.72A1.67,1.67,0,0,1,89.55,116Zm-6.33-2h6v-.39a2.7,2.7,0,0,0-2.7-2.7h-.6a2.7,2.7,0,0,0-2.7,2.7Z"/><path class="cls-11" d="M81.32,55H79.11a4.3,4.3,0,0,1-3-1.24l-2.61-2.59a4.22,4.22,0,0,1-1.25-3V40.83c0-6.18,16-6.18,16,0v7.34a4.22,4.22,0,0,1-1.25,3l-2.61,2.59A4.3,4.3,0,0,1,81.32,55Z"/><g class="cls-1"><path class="cls-10" d="M84.35,51a4.3,4.3,0,0,1-3,1.24H79.11a4.3,4.3,0,0,1-3-1.24l-2.61-2.59a4.22,4.22,0,0,1-1.25-3v2.8a4.22,4.22,0,0,0,1.25,3l2.61,2.59a4.3,4.3,0,0,0,3,1.24h2.21a4.3,4.3,0,0,0,3-1.24L87,51.17a4.22,4.22,0,0,0,1.25-3v-2.8a4.22,4.22,0,0,1-1.25,3Z"/></g><g class="cls-1"><path class="cls-10" d="M88.12,43.69V40.51c0-5.75-15.85-5.75-15.85,0v2.91c.72-.84,1.88-1.49,2.27-2.66,4.5,2.1,9,.24,12,.78A2.35,2.35,0,0,1,88.12,43.69Z"/></g><path class="cls-6" d="M81.32,56H79.11a5.27,5.27,0,0,1-3.73-1.53l-2.61-2.59a5.26,5.26,0,0,1-1.55-3.71V40.83c0-3.87,4.67-5.63,9-5.63s9,1.76,9,5.63v7.34a5.18,5.18,0,0,1-1.55,3.71l-2.61,2.59A5.34,5.34,0,0,1,81.32,56Zm-1.1-18.8c-3.48,0-7,1.25-7,3.63v7.34a3.2,3.2,0,0,0,1,2.29L76.79,53a3.28,3.28,0,0,0,2.32,1h2.21a3.32,3.32,0,0,0,2.32-1l2.61-2.59a3.19,3.19,0,0,0,1-2.29V40.83a3,3,0,0,0-2-2.59A11.47,11.47,0,0,0,80.22,37.2Z"/><path class="cls-12" d="M85.4,34c2.3,1.06,4.26,2.25,4.26,5.52a11.38,11.38,0,0,1-.25,2.28c-.15.71-1.18.39-1.18.39s0-1.91-1.4-2.45c-3.52-1.41-9.25,1.07-13.13-1.56A3.56,3.56,0,0,1,72.52,41s-1.36,0-1.45-.78c-.39-3.51,1.06-5.07,2.62-4.68C77.6,31.62,84,33.32,85.4,34Z"/><g class="cls-1"><path class="cls-3" d="M73.69,37.45c3.9-3.9,10.32-2.2,11.7-1.56,2.07,1,4,1.57,4.26,4.15.3-3.7-1.83-5-4.26-6.08-1.38-.64-7.8-2.34-11.7,1.56-1.48-.37-2.89,1-2.66,4.18C71.21,37.6,72.47,37.14,73.69,37.45Z"/></g><path class="cls-6" d="M88.71,43.22a2.75,2.75,0,0,1-.78-.12,1,1,0,0,1-.7-.89,2.3,2.3,0,0,0-.9-1.65c-1-.56-2.68-.44-4.46-.31-2.3.17-4.9.36-7.37-.67a5.17,5.17,0,0,1-1.19,2,1.07,1.07,0,0,1-.79.38h0c-1.12,0-2.31-.52-2.44-1.67-.26-2.35.21-4.18,1.33-5.16a2.73,2.73,0,0,1,1.94-.69C77.57,30.68,83.72,32.13,85.8,33s4.76,2.57,4.86,6.41A11,11,0,0,1,90.39,42a1.52,1.52,0,0,1-.72,1A1.86,1.86,0,0,1,88.71,43.22Zm-4.64-5.08a6.47,6.47,0,0,1,3.25.68,3.51,3.51,0,0,1,1.32,1.35,6.07,6.07,0,0,0,0-.68C88.59,37,87.15,35.81,85,34.87h0c-1.67-.73-7.19-2.05-10.6,1.35a1,1,0,0,1-.95.26.75.75,0,0,0-.72.17c-.45.39-.85,1.44-.68,3.25l.05,0a2.36,2.36,0,0,0,.53-1.1,1.65,1.65,0,0,1,.88-1.17,1.66,1.66,0,0,1,1.48,0c2.1,1,4.46.82,6.74.65C82.53,38.21,83.32,38.15,84.07,38.15Z"/><path class="cls-6" d="M80.41,49.26a1.83,1.83,0,0,1-1.14-.49,1,1,0,0,1,1.14-1.63,1,1,0,0,1,1.19.23,1,1,0,0,1-.06,1.4A1.83,1.83,0,0,1,80.41,49.26Z"/><path class="cls-6" d="M80.33,52a3.59,3.59,0,0,1-2.09-.53,1,1,0,0,1-.48-1.36,1,1,0,0,1,1.31-.47l.21.12a1.69,1.69,0,0,0,1,.24,1.91,1.91,0,0,0,1.1-.23,1,1,0,0,1,1.29,1.53A3.58,3.58,0,0,1,80.33,52Z"/><path class="cls-6" d="M85.79,45.08a1,1,0,0,1-.45-.11,5.16,5.16,0,0,0-1.71,0c-.45,0-.92.09-1.36.09a1,1,0,0,1,0-2c.36,0,.76,0,1.16-.08a5.3,5.3,0,0,1,2.8.19,1,1,0,0,1-.45,1.89Z"/><path class="cls-6" d="M76.41,47.23a1.36,1.36,0,1,1,1.36-1.36A1.36,1.36,0,0,1,76.41,47.23Zm0-2a.64.64,0,1,0,.64.64A.64.64,0,0,0,76.41,45.23Z"/><path class="cls-6" d="M78.38,45.08a11.59,11.59,0,0,1-1.55-.14,4.62,4.62,0,0,0-1.52-.07,1,1,0,1,1-.89-1.79A4.71,4.71,0,0,1,77.1,43a10.05,10.05,0,0,0,1.28.12,1,1,0,0,1,0,2Z"/><path class="cls-6" d="M84.29,47.23a1.36,1.36,0,1,1,1.36-1.36A1.36,1.36,0,0,1,84.29,47.23Zm0-2a.64.64,0,1,0,.64.64A.64.64,0,0,0,84.29,45.23Z"/><circle class="cls-6" cx="76.41" cy="45.87" r="1"/><circle class="cls-6" cx="84.29" cy="45.87" r="1"/><path class="cls-13" d="M6.16,61.73V42.59A9.84,9.84,0,0,1,16.22,32.54h0A9.84,9.84,0,0,1,26.27,42.59V61.73Z"/><g class="cls-1"><path class="cls-3" d="M16.22,32.54h0A9.84,9.84,0,0,0,6.16,42.59v1.62A9.84,9.84,0,0,1,16.22,34.16h0A9.84,9.84,0,0,1,26.27,44.22V42.59A9.84,9.84,0,0,0,16.22,32.54Z"/></g><path class="cls-6" d="M26.27,62.73H6.16a1,1,0,0,1-1-1V42.59A10.81,10.81,0,0,1,16.22,31.54,10.81,10.81,0,0,1,27.27,42.59V61.73A1,1,0,0,1,26.27,62.73Zm-19.11-2H25.27V42.59a8.86,8.86,0,0,0-9.05-9.05,8.86,8.86,0,0,0-9.05,9.05Z"/><path class="cls-11" d="M17.61,96.36v2.86c0,6.44,3.58,13.6,3.58,13.6l.72,1.43a84.55,84.55,0,0,0,.76-17.9Z"/><path class="cls-11" d="M15,96.36s0,1.43,0,2.86a26,26,0,0,1-3.58,12.17l-.72,2.86a86.51,86.51,0,0,1-.72-17.9Z"/><g class="cls-1"><path class="cls-10" d="M14.75,99c0-1.37,0-2.69,0-2.69H9.73q-.08,1.27-.12,2.48C11.17,99,12.93,99,14.75,99Z"/></g><g class="cls-1"><path class="cls-10" d="M22.78,98.89q0-1.24-.12-2.53H17.61v2.7C19.42,99,21.19,99,22.78,98.89Z"/></g><path class="cls-6" d="M21.91,115.26a1,1,0,0,1-.89-.55l-.72-1.43c-.15-.3-3.69-7.45-3.69-14.05V96.36a1,1,0,0,1,2,0v2.86c0,4.34,1.73,9.09,2.74,11.53a87.93,87.93,0,0,0,.31-14.33,1,1,0,0,1,2-.12,84.82,84.82,0,0,1-.77,18.14,1,1,0,0,1-.84.82Z"/><path class="cls-6" d="M10.45,115.26h0a1,1,0,0,1-.95-.83A86.76,86.76,0,0,1,8.74,96.3a1,1,0,0,1,2,.13,90,90,0,0,0,.19,13.35,24.41,24.41,0,0,0,2.82-10.55c0-1.45,0-2.89,0-2.89a1,1,0,0,1,1-1h0a1,1,0,0,1,1,1s0,1.42,0,2.83a26.73,26.73,0,0,1-3.65,12.56l-.68,2.72A1,1,0,0,1,10.45,115.26Z"/><path class="cls-14" d="M10.45,115H6.87v-1.29h0l1.43-1.57,1.43-4.3h3.58v4.3A2.86,2.86,0,0,1,10.45,115Z"/><g class="cls-1"><polygon class="cls-3" points="9.73 107.82 9.02 109.97 13.31 109.97 13.31 107.82 9.73 107.82"/></g><path class="cls-14" d="M21.91,115h3.58v-1.29h0l-1.43-1.57-1.43-4.3H19v4.3A2.86,2.86,0,0,0,21.91,115Z"/><g class="cls-1"><polygon class="cls-3" points="22.62 107.82 23.34 109.97 19.04 109.97 19.04 107.82 22.62 107.82"/></g><path class="cls-6" d="M10.45,116H6.87a1,1,0,0,1-1-1v-1.29a1,1,0,0,1,.26-.67l1.29-1.42,1.37-4.1a1,1,0,0,1,.95-.68h3.58a1,1,0,0,1,1,1v4.3A3.87,3.87,0,0,1,10.45,116ZM8,114h2.49a1.87,1.87,0,0,0,1.86-1.86v-3.3H10.46l-1.2,3.61a1,1,0,0,1-.21.36Z"/><path class="cls-6" d="M25.49,116H21.91A3.87,3.87,0,0,1,18,112.11v-4.3a1,1,0,0,1,1-1h3.58a1,1,0,0,1,.95.68l1.37,4.1L26.23,113a1,1,0,0,1,.26.67V115A1,1,0,0,1,25.49,116ZM20,108.82v3.3A1.87,1.87,0,0,0,21.91,114H24.4l-1.08-1.19a1,1,0,0,1-.21-.36l-1.21-3.61Z"/><path class="cls-6" d="M10.45,113.11H8.3a1,1,0,0,1,0-2h2.15a1,1,0,0,1,0,2Z"/><path class="cls-6" d="M24.05,113.11H21.91a1,1,0,0,1,0-2h2.15a1,1,0,1,1,0,2Z"/><path class="cls-7" d="M21.67,56.42h0l.6.29a11.44,11.44,0,0,1,6.24,7.88l1.94,8.87H25.26l-1.2-5c.72,2.09-.72,4.43-.63,7.26a45.75,45.75,0,0,1-14,0C9.73,72.92,7.9,72,8.55,68.5l-.82,5H2.34l1.58-8.62a11.44,11.44,0,0,1,6.35-8.27l.4-.19h0C12.6,60.56,19.76,60.56,21.67,56.42Z"/><g class="cls-8"><path class="cls-3" d="M3.92,67.6a11,11,0,0,1,6-8.27,8.85,8.85,0,0,0,12.27,0,11.76,11.76,0,0,1,6.36,8l1.35,6.16h.59L28.53,64.6a11.44,11.44,0,0,0-6.24-7.88l-.6-.29h0c-1.91,4.14-9.07,4.14-11,0h0l-.4.19a11.44,11.44,0,0,0-6.35,8.27L2.34,73.51h.5Z"/><path class="cls-3" d="M8.55,71.2v.05h0Z"/></g><path class="cls-15" d="M23.43,75.76c3.49,4.32,4.49,12.58,5.64,19.17,0,1.91-25.06,1.91-25.06,0,1-6,2.15-14.13,5.41-19.17A45.93,45.93,0,0,0,23.43,75.76Z"/><path class="cls-11" d="M7.25,73.59,6.15,84l-.61,0c-1.32,0-2.71-2.2-1.74-4.89a23.75,23.75,0,0,1-.74-5.51"/><path class="cls-6" d="M6.15,85h0l-.61,0a2.9,2.9,0,0,1-2.25-1.39,5.31,5.31,0,0,1-.5-4.52,27.14,27.14,0,0,1-.69-5.44,1,1,0,0,1,.95-1,1,1,0,0,1,1,.95,23.55,23.55,0,0,0,.69,5.26,1,1,0,0,1,0,.64,3.32,3.32,0,0,0,.17,3,1.53,1.53,0,0,0,.35.38l1-9.35a1,1,0,1,1,2,.21L7.15,84.1A1,1,0,0,1,6.15,85Z"/><path class="cls-6" d="M4.68,80.11h-.1L3.76,80a1,1,0,0,1-.9-1.09A1,1,0,0,1,4,78l.82.08a1,1,0,0,1-.1,2Z"/><path class="cls-11" d="M25.92,73.59l1,10.4.61,0c1.32,0,2.81-2.2,1.83-4.89a23.75,23.75,0,0,0,.74-5.51"/><path class="cls-6" d="M26.92,85a1,1,0,0,1-1-.9l-1-10.4a1,1,0,0,1,.9-1.09,1,1,0,0,1,1.09.9l.9,9.35a1.68,1.68,0,0,0,.41-.43,3.34,3.34,0,0,0,.2-3,1,1,0,0,1,0-.64,23.52,23.52,0,0,0,.69-5.26,1,1,0,1,1,2,.1,27,27,0,0,1-.69,5.44,5.26,5.26,0,0,1-.53,4.47A3,3,0,0,1,27.56,85L27,85Z"/><path class="cls-6" d="M28.49,80.11a1,1,0,0,1-.1-2l.82-.08a1,1,0,1,1,.2,2l-.82.08Z"/><path class="cls-6" d="M16.54,97.36c-3.32,0-6.41-.13-8.72-.36C4.22,96.63,3,96.11,3,94.93a1,1,0,0,1,0-.16l.16-1c1-6,2.16-13.41,5.27-18.35a4.43,4.43,0,0,0-.07-1.14,1,1,0,0,1-.64.23H2.34a1,1,0,0,1-1-1.18l1.58-8.62a12.47,12.47,0,0,1,6.9-9l.4-.19.11,0A1,1,0,0,1,11,57.36l-.32.16A10.47,10.47,0,0,0,4.9,65.07L3.54,72.51H6.89l.61-3.76c0-.14,0-.29.07-.44a1,1,0,0,1,2,.34l-.07.4a6.33,6.33,0,0,0,.43,3.3,7.51,7.51,0,0,1,.51,3.52,1,1,0,0,1-.16.43c-3,4.59-4.16,11.91-5.1,17.8l-.07.44c3,1.13,19.84,1.13,22.9,0l-.33-1.93c-1-5.92-2.11-12.63-5-16.22a1,1,0,0,1-.22-.6,14.78,14.78,0,0,1,.48-3.71,8.42,8.42,0,0,0,.33-2.76l-.14-.59A1,1,0,0,1,25,68.17a4.65,4.65,0,0,1,.19.77L26,72.47h3.18l-1.67-7.66a10.38,10.38,0,0,0-5.7-7.19l-.59-.28a1,1,0,0,1-.53-1.25A1,1,0,0,1,22,55.48h0l.09,0,.6.29a12.36,12.36,0,0,1,6.79,8.57l1.94,8.87a1,1,0,0,1-1,1.21H25.26a1,1,0,0,1-.73-.31,9.41,9.41,0,0,0-.11,1.25c3.07,4,4.2,10.85,5.21,16.87.14.84.28,1.67.42,2.47a1,1,0,0,1,0,.17C30.07,95.78,30.07,97.36,16.54,97.36Z"/><path class="cls-9" d="M20.72,53.69a2.13,2.13,0,0,0,.94,2.63c-.72,1.65-3.53,2.55-5.5,3.13-2-.59-5-1.39-5.5-3a2.22,2.22,0,0,0,.92-2.74Z"/><g class="cls-1"><path class="cls-10" d="M20.72,53.69H11.59a2.6,2.6,0,0,1,0,1.86,7.06,7.06,0,0,0,9.13,0A2.58,2.58,0,0,1,20.72,53.69Z"/></g><path class="cls-6" d="M16.16,60.45c-3,0-5.81-1.64-6.45-3.73a1,1,0,0,1,.43-1.14,1.26,1.26,0,0,0,.54-1.5,1,1,0,0,1,1.84-.79,3.13,3.13,0,0,1-.6,3.37,5.57,5.57,0,0,0,4.25,1.77,5.34,5.34,0,0,0,4.19-1.93,3,3,0,0,1-.55-3.21,1,1,0,0,1,1.85.77,1.11,1.11,0,0,0,.55,1.42,1,1,0,0,1,.34,1.22A7.07,7.07,0,0,1,16.16,60.45Z"/><path class="cls-6" d="M16.87,77.31a34.1,34.1,0,0,1-7.42-.57,1,1,0,0,1,.65-1.89c1.89.64,11.65.55,12.79,0a1,1,0,0,1,.83,1.82C22.8,77.13,19.87,77.31,16.87,77.31Z"/><circle class="cls-13" cx="16.18" cy="76.31" r="2.15"/><path class="cls-6" d="M16.18,79.46a3.15,3.15,0,1,1,3.15-3.15A3.15,3.15,0,0,1,16.18,79.46Zm0-4.3a1.15,1.15,0,1,0,1.15,1.15A1.15,1.15,0,0,0,16.18,75.17Z"/><g class="cls-8"><path class="cls-6" d="M12.66,71.46A4.6,4.6,0,0,1,8,67a1,1,0,0,1,2,0,2.6,2.6,0,0,0,2.7,2.49A2.6,2.6,0,0,0,15.36,67a1,1,0,0,1,2,0A4.6,4.6,0,0,1,12.66,71.46Z"/><path class="cls-6" d="M20.06,71.46A4.6,4.6,0,0,1,15.36,67a1,1,0,0,1,2,0,2.71,2.71,0,0,0,5.4,0,1,1,0,0,1,2,0A4.6,4.6,0,0,1,20.06,71.46Z"/></g><path class="cls-15" d="M9.38,65.25a19.08,19.08,0,0,0-.82,3.25"/><path class="cls-6" d="M8.55,69.5h-.1a1,1,0,0,1-.89-1.1,19.69,19.69,0,0,1,.87-3.47,1,1,0,0,1,1.89.66,17.62,17.62,0,0,0-.77,3A1,1,0,0,1,8.55,69.5Z"/><path class="cls-15" d="M23.23,65.25a19,19,0,0,1,.82,3.25"/><path class="cls-6" d="M24.05,69.5a1,1,0,0,1-1-.92,17.41,17.41,0,0,0-.77-3,1,1,0,0,1,1.89-.65,19.23,19.23,0,0,1,.88,3.49,1,1,0,0,1-.92,1.08Z"/><path class="cls-11" d="M16.44,55.53H16a4.8,4.8,0,0,1-2.31-.59l-1.19-.65a8.18,8.18,0,0,1-4.28-7.17v-5.2c0-7.64,16-7.64,16,0v5.2a8.18,8.18,0,0,1-4.28,7.17l-1.19.65A4.8,4.8,0,0,1,16.44,55.53Z"/><g class="cls-1"><path class="cls-10" d="M19.94,52.08l-1.19.65a4.8,4.8,0,0,1-2.31.59H16a4.8,4.8,0,0,1-2.31-.59l-1.19-.65a8.18,8.18,0,0,1-4.28-7.17v2.21a8.18,8.18,0,0,0,4.28,7.17l1.19.65a4.8,4.8,0,0,0,2.31.59h.45a4.8,4.8,0,0,0,2.31-.59l1.19-.65a8.18,8.18,0,0,0,4.28-7.17V44.91A8.18,8.18,0,0,1,19.94,52.08Z"/></g><path class="cls-6" d="M16.44,56.53H16a5.82,5.82,0,0,1-2.79-.71L12,55.17a9.19,9.19,0,0,1-4.8-8v-5.2c0-4.63,4.67-6.73,9-6.73s9,2.11,9,6.73v5.2a9.19,9.19,0,0,1-4.8,8l-1.19.65A5.82,5.82,0,0,1,16.44,56.53Zm-.22-19.35c-3.37,0-7,1.48-7,4.73v5.2A7.19,7.19,0,0,0,13,53.41l1.19.65a3.81,3.81,0,0,0,1.83.47h.45a3.81,3.81,0,0,0,1.83-.47l1.19-.65a7.19,7.19,0,0,0,3.76-6.29v-5.2C23.22,38.67,19.59,37.19,16.22,37.19Z"/><path class="cls-6" d="M16.28,50.14a1.84,1.84,0,0,1-1.14-.49A1,1,0,0,1,16.29,48a1,1,0,0,1,1.19.23,1,1,0,0,1-.06,1.4A1.84,1.84,0,0,1,16.28,50.14Z"/><path class="cls-6" d="M16.2,52.78a4,4,0,0,1-2.09-.45A1,1,0,0,1,13.63,51a1,1,0,0,1,1.31-.47l.12.06a2.06,2.06,0,0,0,1.15.21c.86,0,1.06-.13,1.19-.21l1.09,1.68A3.74,3.74,0,0,1,16.2,52.78Z"/><path class="cls-6" d="M13,47.93a1.36,1.36,0,1,1,1.36-1.36A1.36,1.36,0,0,1,13,47.93Zm0-2a.64.64,0,1,0,.64.64A.64.64,0,0,0,13,45.93Z"/><path class="cls-6" d="M21.66,45.22a1,1,0,0,1-.45-.11A4.47,4.47,0,0,0,18.45,45a1,1,0,1,1-.61-1.91,6.43,6.43,0,0,1,4.26.27,1,1,0,0,1-.45,1.89Z"/><path class="cls-6" d="M10.74,45.18a1,1,0,0,1-.49-1.87,5.43,5.43,0,0,1,4.4-.15,1,1,0,0,1-.8,1.83,3.45,3.45,0,0,0-2.62.07A1,1,0,0,1,10.74,45.18Z"/><path class="cls-6" d="M19.44,47.93a1.36,1.36,0,1,1,1.36-1.36A1.36,1.36,0,0,1,19.44,47.93Zm0-2a.64.64,0,1,0,.64.64A.64.64,0,0,0,19.44,45.93Z"/><circle class="cls-6" cx="12.99" cy="46.57" r="1"/><circle class="cls-6" cx="19.44" cy="46.57" r="1"/><g class="cls-1"><circle class="cls-16" cx="20.52" cy="49.8" r="1.43"/></g><g class="cls-1"><circle class="cls-16" cx="11.92" cy="49.8" r="1.43"/></g><g class="cls-1"><path class="cls-10" d="M8.23,42.16a13.19,13.19,0,0,0,13.11-2.53c.92,3.29,2.86,2.69,2.88,2.69V40.44s-2,.83-2.94-2.47c-6,5.06-13,2.21-13,2.21Z"/></g><path class="cls-13" d="M8.18,40.15a12.78,12.78,0,0,0,13-2.36,2.53,2.53,0,0,0,2.94,2.71l.73,0C24.66,33,7.77,33,7.54,39.85Z"/><path class="cls-6" d="M12.92,42a13.66,13.66,0,0,1-5.08-.94l-.64-.28A1,1,0,0,1,8,39l.64.28a11.68,11.68,0,0,0,12-2.2,1,1,0,0,1,1.66.75,1.75,1.75,0,0,0,.45,1.36,2,2,0,0,0,1.36.36l.45,0a1,1,0,0,1,.17,2l-.41,0a3.93,3.93,0,0,1-2.88-.84,3.14,3.14,0,0,1-.79-1.08A13.21,13.21,0,0,1,12.92,42Z"/><path class="cls-6" d="M24.19,44.13a1,1,0,0,1-1-1V41.44a5.69,5.69,0,0,0-.05-.8,1,1,0,1,1,2-.28,7.73,7.73,0,0,1,.07,1.07v1.68A1,1,0,0,1,24.19,44.13Z"/><path class="cls-6" d="M8.23,43.72a1,1,0,0,1-1-1V41.44A7.81,7.81,0,0,1,7.36,40a1,1,0,1,1,2,.36,5.91,5.91,0,0,0-.09,1v1.28A1,1,0,0,1,8.23,43.72Z"/><path class="cls-17" d="M51.79,56a15.27,15.27,0,0,0,4.18-.6,4.17,4.17,0,0,0,2.87-5.33c-1.14-3.45-.23-6.24-1-9.64-1.06-4.52-5.15-7.93-10.64-7.93s-9.86,3.26-10.76,7.93c-.65,3.37.23,6.12-.85,9.51a4.2,4.2,0,0,0,2.8,5.32,14.72,14.72,0,0,0,3.95.74Z"/><g class="cls-1"><path class="cls-18" d="M56,53.3a15.27,15.27,0,0,1-4.18.6H42.31a14.72,14.72,0,0,1-3.95-.74c-1.56-.46-2.64-1.18-2.92-2.67a4.19,4.19,0,0,0,2.92,4.8,14.72,14.72,0,0,0,3.95.74h9.48a15.27,15.27,0,0,0,4.18-.6,4.16,4.16,0,0,0,3-4.8C58.67,52.14,57.56,52.88,56,53.3Z"/></g><g class="cls-1"><path class="cls-3" d="M58.18,45.19h0a20.4,20.4,0,0,0-.38-4.72c-1.06-4.52-5.15-7.93-10.64-7.93s-9.86,3.26-10.76,7.93A22.24,22.24,0,0,0,36.15,45a16.43,16.43,0,0,1,.27-2.93c.9-4.67,5.26-7.42,10.76-7.42s9.58,2.9,10.64,7.42A15.24,15.24,0,0,1,58.18,45.19Z"/></g><path class="cls-6" d="M42.9,57h0a20.09,20.09,0,0,1-4.8-.78A5.13,5.13,0,0,1,35,53.73a5.2,5.2,0,0,1-.36-4,15.27,15.27,0,0,0,.54-5,21.46,21.46,0,0,1,.29-4.38c1-5.14,5.82-8.74,11.74-8.74,5.72,0,10.39,3.5,11.61,8.7a19.78,19.78,0,0,1,.41,4.59,15.23,15.23,0,0,0,.59,5,5.2,5.2,0,0,1-.36,4.08,5.1,5.1,0,0,1-3.19,2.53,20.48,20.48,0,0,1-5.05.64,1,1,0,0,1,0-2h.22a19,19,0,0,0,4.29-.57,3.17,3.17,0,0,0,2.17-4,17.08,17.08,0,0,1-.69-5.57,17.91,17.91,0,0,0-.35-4.15c-1-4.28-4.89-7.16-9.67-7.16-4.95,0-9,2.93-9.78,7.12a19.62,19.62,0,0,0-.25,4,17.08,17.08,0,0,1-.63,5.63,3.22,3.22,0,0,0,.22,2.5,3.15,3.15,0,0,0,1.91,1.55,18.23,18.23,0,0,0,4.28.7,1,1,0,0,1,0,2Z"/><path class="cls-11" d="M48.61,96.36v2.86c0,6.44,3.58,13.6,3.58,13.6l.72,1.43a84.55,84.55,0,0,0,.76-17.9Z"/><path class="cls-11" d="M46,96.36s0,1.43,0,2.86a26,26,0,0,1-3.58,12.17l-.72,2.86a86.51,86.51,0,0,1-.72-17.9Z"/><g class="cls-1"><path class="cls-10" d="M45.75,99c0-1.37,0-2.69,0-2.69H40.73q-.08,1.27-.12,2.48C42.17,99,43.93,99,45.75,99Z"/></g><g class="cls-1"><path class="cls-10" d="M53.78,98.89q0-1.24-.12-2.53H48.61v2.7C50.42,99,52.19,99,53.78,98.89Z"/></g><path class="cls-6" d="M52.91,115.26a1,1,0,0,1-.89-.55l-.72-1.43c-.15-.3-3.69-7.45-3.69-14.05V96.36a1,1,0,0,1,2,0v2.86c0,4.34,1.73,9.09,2.74,11.53a87.93,87.93,0,0,0,.31-14.33,1,1,0,0,1,2-.12,84.82,84.82,0,0,1-.77,18.14,1,1,0,0,1-.84.82Z"/><path class="cls-6" d="M41.45,115.26h0a1,1,0,0,1-.95-.83,86.76,86.76,0,0,1-.73-18.13,1,1,0,0,1,1.06-.94,1,1,0,0,1,.94,1.06,90,90,0,0,0,.19,13.35,24.41,24.41,0,0,0,2.82-10.55c0-1.45,0-2.89,0-2.89a1,1,0,0,1,1-1h0a1,1,0,0,1,1,1s0,1.42,0,2.83a26.73,26.73,0,0,1-3.65,12.56l-.68,2.72A1,1,0,0,1,41.45,115.26Z"/><path class="cls-19" d="M41.45,115H37.87v-1.29h0l1.43-1.57,1.43-4.3h3.58v4.3A2.86,2.86,0,0,1,41.45,115Z"/><g class="cls-1"><polygon class="cls-3" points="40.73 107.82 40.02 109.97 44.31 109.97 44.31 107.82 40.73 107.82"/></g><path class="cls-19" d="M52.91,115h3.58v-1.29h0l-1.43-1.57-1.43-4.3H50v4.3A2.86,2.86,0,0,0,52.91,115Z"/><g class="cls-1"><polygon class="cls-3" points="53.62 107.82 54.34 109.97 50.04 109.97 50.04 107.82 53.62 107.82"/></g><path class="cls-6" d="M41.45,116H37.87a1,1,0,0,1-1-1v-1.29a1,1,0,0,1,.26-.67l1.29-1.42,1.37-4.1a1,1,0,0,1,.95-.68h3.58a1,1,0,0,1,1,1v4.3A3.87,3.87,0,0,1,41.45,116ZM39,114h2.49a1.87,1.87,0,0,0,1.86-1.86v-3.3H41.46l-1.2,3.61a1,1,0,0,1-.21.36Z"/><path class="cls-6" d="M56.49,116H52.91A3.87,3.87,0,0,1,49,112.11v-4.3a1,1,0,0,1,1-1h3.58a1,1,0,0,1,.95.68l1.37,4.1L57.23,113a1,1,0,0,1,.26.67V115A1,1,0,0,1,56.49,116ZM51,108.82v3.3A1.87,1.87,0,0,0,52.91,114H55.4l-1.08-1.19a1,1,0,0,1-.21-.36l-1.21-3.61Z"/><path class="cls-6" d="M41.45,113.11H39.3a1,1,0,1,1,0-2h2.15a1,1,0,0,1,0,2Z"/><path class="cls-6" d="M55.05,113.11H52.91a1,1,0,0,1,0-2h2.15a1,1,0,1,1,0,2Z"/><path class="cls-19" d="M52.67,56.42h0l.6.29a11.44,11.44,0,0,1,6.24,7.88l1.94,8.87H56.26l-1.2-5c.72,2.09-.72,4.43-.63,7.26a45.75,45.75,0,0,1-14,0c.32-2.84-1.52-3.72-.87-7.26l-.82,5h-5.4l1.58-8.62a11.44,11.44,0,0,1,6.35-8.27l.4-.19h0C43.6,60.56,50.76,60.56,52.67,56.42Z"/><g class="cls-1"><path class="cls-3" d="M34.92,67.6a11,11,0,0,1,6-8.27,8.85,8.85,0,0,0,12.27,0,11.76,11.76,0,0,1,6.36,8l1.35,6.16h.59L59.53,64.6a11.44,11.44,0,0,0-6.24-7.88l-.6-.29h0c-1.91,4.14-9.07,4.14-11,0h0l-.4.19a11.44,11.44,0,0,0-6.35,8.27l-1.58,8.62h.5Z"/><path class="cls-3" d="M39.55,71.2v.05h0Z"/></g><path class="cls-14" d="M54.43,75.76c3.49,4.32,4.49,12.58,5.64,19.17,0,1.91-25.06,1.91-25.06,0,1-6,2.15-14.13,5.41-19.17A45.93,45.93,0,0,0,54.43,75.76Z"/><path class="cls-11" d="M38.25,73.59,37.15,84l-.61,0c-1.32,0-2.71-2.2-1.74-4.89a23.75,23.75,0,0,1-.74-5.51"/><path class="cls-6" d="M37.15,85h0l-.61,0a2.9,2.9,0,0,1-2.25-1.39,5.31,5.31,0,0,1-.5-4.52,27.14,27.14,0,0,1-.69-5.44,1,1,0,0,1,.95-1,1,1,0,0,1,1,.95,23.55,23.55,0,0,0,.69,5.26,1,1,0,0,1,0,.64,3.32,3.32,0,0,0,.17,3,1.53,1.53,0,0,0,.35.38l1-9.35a1,1,0,0,1,2,.21l-1.1,10.4A1,1,0,0,1,37.15,85Z"/><path class="cls-6" d="M35.68,80.11h-.1L34.76,80a1,1,0,0,1-.9-1.09A1,1,0,0,1,35,78l.82.08a1,1,0,0,1-.1,2Z"/><path class="cls-11" d="M56.92,73.59l1,10.4.61,0c1.32,0,2.81-2.2,1.83-4.89a23.75,23.75,0,0,0,.74-5.51"/><path class="cls-6" d="M57.92,85a1,1,0,0,1-1-.9l-1-10.4a1,1,0,0,1,.9-1.09,1,1,0,0,1,1.09.9l.9,9.35a1.68,1.68,0,0,0,.41-.43,3.34,3.34,0,0,0,.2-3,1,1,0,0,1,0-.64,23.52,23.52,0,0,0,.69-5.26,1,1,0,0,1,1-1,1,1,0,0,1,1,1,27,27,0,0,1-.69,5.44,5.26,5.26,0,0,1-.53,4.47A3,3,0,0,1,58.56,85L58,85Z"/><path class="cls-6" d="M59.49,80.11a1,1,0,0,1-.1-2l.82-.08a1,1,0,1,1,.2,2l-.82.08Z"/><path class="cls-6" d="M47.54,97.36c-3.32,0-6.41-.13-8.72-.36-3.6-.37-4.81-.89-4.81-2.07a1,1,0,0,1,0-.16l.16-1c1-6,2.16-13.41,5.27-18.35a4.43,4.43,0,0,0-.07-1.14,1,1,0,0,1-.64.23h-5.4a1,1,0,0,1-1-1.18l1.58-8.62a12.47,12.47,0,0,1,6.9-9l.4-.19.11,0A1,1,0,0,1,42,57.36l-.32.16a10.47,10.47,0,0,0-5.79,7.55l-1.36,7.44h3.35l.61-3.76c0-.14,0-.29.07-.44a1,1,0,0,1,2,.34l-.07.4a6.33,6.33,0,0,0,.43,3.3,7.51,7.51,0,0,1,.51,3.52,1,1,0,0,1-.16.43c-3,4.59-4.16,11.91-5.1,17.8l-.07.44c3,1.13,19.84,1.13,22.9,0l-.33-1.93c-1-5.92-2.11-12.63-5-16.22a1,1,0,0,1-.22-.6,14.78,14.78,0,0,1,.48-3.71,8.42,8.42,0,0,0,.33-2.76l-.14-.59A1,1,0,0,1,56,68.17a4.65,4.65,0,0,1,.19.77L57,72.47h3.18l-1.67-7.66a10.38,10.38,0,0,0-5.7-7.19l-.59-.28a1,1,0,0,1-.53-1.25A1,1,0,0,1,53,55.48h0l.09,0,.6.29a12.36,12.36,0,0,1,6.79,8.57l1.94,8.87a1,1,0,0,1-1,1.21H56.26a1,1,0,0,1-.73-.31,9.41,9.41,0,0,0-.11,1.25c3.07,4,4.2,10.85,5.21,16.87.14.84.28,1.67.42,2.47a1,1,0,0,1,0,.17C61.07,95.78,61.07,97.36,47.54,97.36Z"/><path class="cls-9" d="M51.72,53.69a2.13,2.13,0,0,0,.94,2.63c-.72,1.65-3.53,2.55-5.5,3.13-2-.59-5-1.39-5.5-3a2.22,2.22,0,0,0,.92-2.74Z"/><g class="cls-1"><path class="cls-10" d="M51.72,53.69H42.59a2.6,2.6,0,0,1,0,1.86,7.06,7.06,0,0,0,9.13,0A2.58,2.58,0,0,1,51.72,53.69Z"/></g><path class="cls-6" d="M47.16,60.45c-3,0-5.81-1.64-6.45-3.73a1,1,0,0,1,.43-1.14,1.26,1.26,0,0,0,.54-1.5,1,1,0,0,1,1.84-.79,3.13,3.13,0,0,1-.6,3.37,5.57,5.57,0,0,0,4.25,1.77,5.34,5.34,0,0,0,4.19-1.93,3,3,0,0,1-.55-3.21,1,1,0,0,1,1.85.77,1.11,1.11,0,0,0,.55,1.42,1,1,0,0,1,.34,1.22A7.07,7.07,0,0,1,47.16,60.45Z"/><path class="cls-6" d="M47.87,77.31a34.1,34.1,0,0,1-7.42-.57,1,1,0,0,1,.65-1.89c1.88.64,11.65.55,12.79,0a1,1,0,0,1,.83,1.82C53.8,77.13,50.87,77.31,47.87,77.31Z"/><circle class="cls-13" cx="47.18" cy="76.31" r="2.15"/><path class="cls-6" d="M47.18,79.46a3.15,3.15,0,1,1,3.15-3.15A3.15,3.15,0,0,1,47.18,79.46Zm0-4.3a1.15,1.15,0,1,0,1.15,1.15A1.15,1.15,0,0,0,47.18,75.17Z"/><g class="cls-8"><path class="cls-6" d="M43.66,71.46A4.6,4.6,0,0,1,39,67a1,1,0,0,1,2,0,2.71,2.71,0,0,0,5.4,0,1,1,0,0,1,2,0A4.6,4.6,0,0,1,43.66,71.46Z"/><path class="cls-6" d="M51.06,71.46A4.6,4.6,0,0,1,46.36,67a1,1,0,0,1,2,0,2.71,2.71,0,0,0,5.4,0,1,1,0,0,1,2,0A4.6,4.6,0,0,1,51.06,71.46Z"/></g><path class="cls-15" d="M40.38,65.25a19.08,19.08,0,0,0-.82,3.25"/><path class="cls-6" d="M39.55,69.5h-.1a1,1,0,0,1-.89-1.1,19.69,19.69,0,0,1,.87-3.47,1,1,0,0,1,1.89.66,17.62,17.62,0,0,0-.77,3A1,1,0,0,1,39.55,69.5Z"/><path class="cls-15" d="M54.23,65.25a19,19,0,0,1,.82,3.25"/><path class="cls-6" d="M55.05,69.5a1,1,0,0,1-1-.92,17.41,17.41,0,0,0-.77-3,1,1,0,0,1,1.89-.65,19.23,19.23,0,0,1,.88,3.49,1,1,0,0,1-.92,1.08Z"/><path class="cls-6" d="M47.75,94.18a1,1,0,0,1-.62-.22L45.67,92.8l-1.73,1.13a1,1,0,0,1-1.25-.13l-1.15-1.14-1.53,1a1,1,0,0,1-1.26-.15L37.5,92.21l-1.29.72a1,1,0,0,1-1-1.74l2-1.1a1,1,0,0,1,1.21.18l1.22,1.25,1.52-1a1,1,0,0,1,1.24.13l1.15,1.13,1.66-1.08a1,1,0,0,1,1.17.05l1.41,1.12,1.45-1.14a1,1,0,0,1,1.22,0l1.35,1L53,90.64a1,1,0,0,1,1.25-.1l1.41.95,1.13-1.22A1,1,0,0,1,58,90.09l1.87,1.12a1,1,0,1,1-1,1.72l-1.17-.7L56.5,93.47a1,1,0,0,1-1.29.15l-1.45-1L52.54,93.8a1,1,0,0,1-1.29.08l-1.41-1.06L48.37,94A1,1,0,0,1,47.75,94.18Z"/><path class="cls-6" d="M47.74,90.51a1,1,0,0,1-.62-.22l-1.38-1.1-1.64,1.07a1,1,0,0,1-1.25-.13l-1.08-1.07L40.33,90a1,1,0,0,1-1.26-.15l-1.18-1.21-1.21.68a1,1,0,0,1-1-1.74l1.88-1.06a1,1,0,0,1,1.21.18l1.15,1.18L41.37,87a1,1,0,0,1,1.24.13l1.08,1.07,1.56-1a1,1,0,0,1,1.17.05l1.32,1.05,1.37-1.07a1,1,0,0,1,1.22,0l1.27,1L52.72,87a1,1,0,0,1,1.25-.1l1.32.89,1.06-1.14a1,1,0,0,1,1.25-.18l1.79,1.07a1,1,0,1,1-1,1.72l-1.1-.66-1.09,1.18a1,1,0,0,1-1.29.15L53.52,89l-1.15,1.09a1,1,0,0,1-1.29.08l-1.33-1L48.36,90.3A1,1,0,0,1,47.74,90.51Z"/><path class="cls-11" d="M47.44,55.53H47a4.8,4.8,0,0,1-2.31-.59l-1.19-.65a8.18,8.18,0,0,1-4.28-7.17v-5.2c0-7.64,16-7.64,16,0v5.2a8.18,8.18,0,0,1-4.28,7.17l-1.19.65A4.8,4.8,0,0,1,47.44,55.53Z"/><g class="cls-1"><path class="cls-10" d="M50.94,52.08l-1.19.65a4.8,4.8,0,0,1-2.31.59H47a4.8,4.8,0,0,1-2.31-.59l-1.19-.65a8.18,8.18,0,0,1-4.28-7.17v2.21a8.18,8.18,0,0,0,4.28,7.17l1.19.65a4.8,4.8,0,0,0,2.31.59h.45a4.8,4.8,0,0,0,2.31-.59l1.19-.65a8.18,8.18,0,0,0,4.28-7.17V44.91A8.18,8.18,0,0,1,50.94,52.08Z"/></g><path class="cls-6" d="M47.44,56.53H47a5.82,5.82,0,0,1-2.79-.71L43,55.17a9.19,9.19,0,0,1-4.8-8v-5.2c0-4.63,4.67-6.73,9-6.73s9,2.11,9,6.73v5.2a9.19,9.19,0,0,1-4.8,8l-1.19.65A5.82,5.82,0,0,1,47.44,56.53Zm-.22-19.35c-3.37,0-7,1.48-7,4.73v5.2A7.19,7.19,0,0,0,44,53.41l1.19.65a3.81,3.81,0,0,0,1.83.47h.45a3.81,3.81,0,0,0,1.83-.47l1.19-.65a7.19,7.19,0,0,0,3.76-6.29v-5.2C54.22,38.67,50.59,37.19,47.22,37.19Z"/><path class="cls-6" d="M47.28,50.14a1.84,1.84,0,0,1-1.14-.49A1,1,0,0,1,47.29,48a1,1,0,0,1,1.19.23,1,1,0,0,1-.06,1.4A1.84,1.84,0,0,1,47.28,50.14Z"/><path class="cls-6" d="M47.2,52.78a4,4,0,0,1-2.09-.45A1,1,0,0,1,44.63,51a1,1,0,0,1,1.31-.47l.12.06a2.06,2.06,0,0,0,1.15.21c.86,0,1.06-.13,1.19-.21l1.09,1.68A3.74,3.74,0,0,1,47.2,52.78Z"/><path class="cls-6" d="M44,47.93a1.36,1.36,0,1,1,1.36-1.36A1.36,1.36,0,0,1,44,47.93Zm0-2a.64.64,0,1,0,.64.64A.64.64,0,0,0,44,45.93Z"/><path class="cls-6" d="M52.66,45.22a1,1,0,0,1-.45-.11A4.47,4.47,0,0,0,49.45,45a1,1,0,1,1-.61-1.91,6.43,6.43,0,0,1,4.26.27,1,1,0,0,1-.45,1.89Z"/><path class="cls-6" d="M41.74,45.18a1,1,0,0,1-.49-1.87,5.43,5.43,0,0,1,4.4-.15,1,1,0,0,1-.8,1.83,3.45,3.45,0,0,0-2.62.07A1,1,0,0,1,41.74,45.18Z"/><path class="cls-6" d="M50.44,47.93a1.36,1.36,0,1,1,1.36-1.36A1.36,1.36,0,0,1,50.44,47.93Zm0-2a.64.64,0,1,0,.64.64A.64.64,0,0,0,50.44,45.93Z"/><circle class="cls-6" cx="43.99" cy="46.57" r="1"/><circle class="cls-6" cx="50.44" cy="46.57" r="1"/><g class="cls-1"><circle class="cls-16" cx="51.52" cy="49.8" r="1.43"/></g><g class="cls-1"><circle class="cls-16" cx="42.92" cy="49.8" r="1.43"/></g><g class="cls-1"><path class="cls-10" d="M39.23,42.16a13.19,13.19,0,0,0,13.11-2.53c.92,3.29,2.86,2.69,2.88,2.69V40.44s-2,.83-2.94-2.47c-6,5.06-13,2.21-13,2.21Z"/></g><path class="cls-17" d="M39.18,40.15a12.78,12.78,0,0,0,13-2.36,2.53,2.53,0,0,0,2.94,2.71l.73,0C55.66,33,38.77,33,38.54,39.85Z"/><path class="cls-6" d="M43.92,42a13.66,13.66,0,0,1-5.08-.94l-.64-.28A1,1,0,0,1,39,39l.64.28a11.68,11.68,0,0,0,12-2.2,1,1,0,0,1,1.66.75,1.75,1.75,0,0,0,.45,1.36,2,2,0,0,0,1.36.36l.45,0a1,1,0,0,1,.17,2l-.41,0a3.93,3.93,0,0,1-2.88-.84,3.14,3.14,0,0,1-.79-1.08A13.21,13.21,0,0,1,43.92,42Z"/><path class="cls-6" d="M55.19,44.13a1,1,0,0,1-1-1V41.44a5.69,5.69,0,0,0-.05-.8,1,1,0,1,1,2-.28,7.73,7.73,0,0,1,.07,1.07v1.68A1,1,0,0,1,55.19,44.13Z"/><path class="cls-6" d="M39.23,43.72a1,1,0,0,1-1-1V41.44a7.81,7.81,0,0,1,.13-1.4,1,1,0,1,1,2,.36,5.91,5.91,0,0,0-.09,1v1.28A1,1,0,0,1,39.23,43.72Z"/><path class="cls-16" d="M38.4,89.9H22v2.87H17.26L16,82.19a7,7,0,0,1,0-1.78l.92-7.74a5,5,0,0,1,2.82-4l5-2.27c.5,1.64,2.95,3,5.5,3a6.05,6.05,0,0,0,5.46-3.13h.05l5,2.38a5,5,0,0,1,2.78,3.95l.92,7.78a7,7,0,0,1,0,1.78L43.18,92.76H38.4Z"/><g class="cls-1"><path class="cls-3" d="M16.09,82.92l.83-7a5,5,0,0,1,2.82-4l4.06-2c.84,1.56,3.83,2.78,6.39,2.78A9.34,9.34,0,0,0,36.62,70l4.11,2a5,5,0,0,1,2.78,3.95l.83,7,.09-.73a7,7,0,0,0,0-1.78l-.92-7.78a5,5,0,0,0-2.78-3.95l-5-2.38h-.05a6.05,6.05,0,0,1-5.46,3.13c-2.55,0-5-1.38-5.5-3l-5,2.27a5,5,0,0,0-2.82,4L16,80.41a7,7,0,0,0,0,1.78Z"/></g><polygon class="cls-3" points="21.17 92.76 17.22 92.76 16.85 89.18 21.17 89.18 21.17 92.76"/><polygon class="cls-3" points="39.32 92.76 43.27 92.88 43.66 89.18 39.32 89.18 39.32 92.76"/><path class="cls-11" d="M17.22,93h4a0,0,0,0,1,0,0v5.6a0,0,0,0,1,0,0h-.64a3.36,3.36,0,0,1-3.36-3.36V93A0,0,0,0,1,17.22,93Z"/><path class="cls-6" d="M21.22,99.6h-.64a4.37,4.37,0,0,1-4.36-4.36V93a1,1,0,0,1,1-1h4a1,1,0,0,1,1,1v5.6A1,1,0,0,1,21.22,99.6Zm-3-5.6v1.24a2.37,2.37,0,0,0,2,2.33V94Z"/><path class="cls-11" d="M42.58,93h.64a0,0,0,0,1,0,0v5.6a0,0,0,0,1,0,0h-4a0,0,0,0,1,0,0V96.36A3.36,3.36,0,0,1,42.58,93Z" transform="translate(82.44 191.6) rotate(180)"/><path class="cls-6" d="M39.86,99.6h-.64a1,1,0,0,1-1-1V93a1,1,0,0,1,1-1h4a1,1,0,0,1,1,1v2.24A4.37,4.37,0,0,1,39.86,99.6Zm.36-5.6v3.57a2.37,2.37,0,0,0,2-2.33V94Z"/><path class="cls-6" d="M39.22,90.9a1,1,0,0,1-1-1V77.41a2.4,2.4,0,0,0-.71-1.71,1,1,0,0,1,1.42-1.41,4.39,4.39,0,0,1,1.29,3.12V89.9A1,1,0,0,1,39.22,90.9Z"/><path class="cls-6" d="M21.22,90.9a1,1,0,0,1-1-1V77.41a4.38,4.38,0,0,1,1.29-3.12,1,1,0,0,1,1.41,1.41,2.4,2.4,0,0,0-.71,1.71V89.9A1,1,0,0,1,21.22,90.9Z"/><path class="cls-6" d="M43.18,94H38.4a1,1,0,0,1,0-2h3.88l1.15-9.93a6,6,0,0,0,0-1.53l-.92-7.79a4,4,0,0,0-2.21-3.16l-5-2.38a1,1,0,1,1,.86-1.81l5,2.38a6,6,0,0,1,3.34,4.73l.92,7.78a8,8,0,0,1,0,2l-1.25,10.8A1,1,0,0,1,43.18,94Z"/><path class="cls-6" d="M22,94H17.26a1,1,0,0,1-1-.88L15,82.3a8,8,0,0,1,0-2l.92-7.74a6,6,0,0,1,3.4-4.77l5-2.27.44.9.36.93h0L20.17,69.6a4,4,0,0,0-2.25,3.18L17,80.53a6,6,0,0,0,0,1.53L18.15,92H22a1,1,0,0,1,0,2Z"/><polygon class="cls-13" points="21.22 124 28.22 124 28.22 97 32.22 97 32.22 124 39.22 124 39.22 89.9 21.22 89.9 21.22 124"/><path class="cls-6" d="M39.22,125h-7a1,1,0,0,1-1-1V98h-2v26a1,1,0,0,1-1,1h-7a1,1,0,0,1-1-1V89.9a1,1,0,0,1,1-1h18a1,1,0,0,1,1,1V124A1,1,0,0,1,39.22,125Zm-6-2h5V90.9h-16V123h5V97a1,1,0,0,1,1-1h4a1,1,0,0,1,1,1Z"/><path class="cls-6" d="M21.22,95.7A1,1,0,0,1,20.51,94l4.83-4.8a1,1,0,0,1,1.41,1.42l-4.83,4.8A1,1,0,0,1,21.22,95.7Z"/><path class="cls-6" d="M39.14,95.4a1,1,0,0,1-.71-.29l-4.5-4.5a1,1,0,0,1,1.41-1.41l4.5,4.5a1,1,0,0,1-.71,1.71Z"/><path class="cls-6" d="M43.22,90h-4a1,1,0,0,1,0-2h4a1,1,0,0,1,0,2Z"/><path class="cls-6" d="M21.22,90H17.45a1,1,0,0,1,0-2h3.77a1,1,0,0,1,0,2Z"/><path class="cls-6" d="M16.06,82.3a1,1,0,0,1-.34-1.94l1.72-.61a1,1,0,0,1,.67,1.88l-1.72.61A1,1,0,0,1,16.06,82.3Z"/><path class="cls-6" d="M44.37,82.3a1,1,0,0,1-.33-.06l-1.63-.57a1,1,0,0,1,.66-1.89l1.63.57a1,1,0,0,1-.33,1.94Z"/><polygon class="cls-20" points="36.72 68.87 23.77 68.87 23.83 64.42 36.64 64.42 36.72 68.87"/><path class="cls-6" d="M36.72,69.87h-13a1,1,0,0,1-1-1l.06-4.45a1,1,0,0,1,1-1H36.64a1,1,0,0,1,1,1l.08,4.45a1,1,0,0,1-1,1Zm-11.94-2H35.7l0-2.45H24.82Z"/><path class="cls-9" d="M34.94,63.84a2.13,2.13,0,0,0,1,2.65c-.75,1.62-3.64,2.43-5.67,3-2-.57-5.15-1.4-5.67-3a2.09,2.09,0,0,0,1-2.65Z"/><g class="cls-1"><polygon class="cls-21" points="33.88 68.92 31.2 68.92 30.24 69.5 29.25 68.92 26.6 68.92 26.6 71.35 33.88 71.35 33.88 68.92"/></g><g class="cls-1"><path class="cls-10" d="M34.94,63.84H25.53a1.34,1.34,0,0,1,0,1.33l.58.49a4.85,4.85,0,0,0,3.11,1.08h2a4.85,4.85,0,0,0,3.11-1.08l.59-.5A1.33,1.33,0,0,1,34.94,63.84Z"/></g><path class="cls-6" d="M30.24,70.5a1,1,0,0,1-.47-.12l-5.67-3a1,1,0,0,1,0-1.74c.09-.06.92-.58.55-1.38a1,1,0,0,1,1.82-.82,2.87,2.87,0,0,1-.2,2.81l4,2.12,4-2.13A2.84,2.84,0,0,1,34,63.44a1,1,0,1,1,1.83.8c-.31.71.32,1.23.6,1.42a1,1,0,0,1-.08,1.72l-5.67,3A1,1,0,0,1,30.24,70.5Z"/><path class="cls-22" d="M25.41,70.76l-3.67-3.06,2-3.24,4.86,4-1.2,1.93A1.35,1.35,0,0,1,25.41,70.76Z"/><path class="cls-22" d="M35.07,70.76l3.67-3.06-2-3.24-4.86,4,1.2,1.93A1.35,1.35,0,0,0,35.07,70.76Z"/><g class="cls-1"><polygon class="cls-3" points="23.77 66.09 27.96 69.58 28.62 68.52 23.77 64.47 21.74 67.71 22.41 68.26 23.77 66.09"/></g><g class="cls-1"><polygon class="cls-3" points="36.7 66.09 38.06 68.26 38.73 67.71 36.7 64.47 31.84 68.52 32.51 69.58 36.7 66.09"/></g><path class="cls-6" d="M26.27,72.08a2.35,2.35,0,0,1-1.5-.55L21.1,68.48a1,1,0,0,1-.21-1.3l2-3.24a1,1,0,0,1,1.49-.24l4.86,4a1,1,0,0,1,.21,1.3L28.27,71A2.35,2.35,0,0,1,26.65,72ZM23.05,67.5,26,70h0a.35.35,0,0,0,.52-.08l.74-1.19L24,66Z"/><path class="cls-6" d="M34.19,72.08l-.37,0A2.35,2.35,0,0,1,32.2,71L31,69a1,1,0,0,1,.21-1.3l4.86-4a1,1,0,0,1,1.49.24l2,3.24a1,1,0,0,1-.21,1.3L35.7,71.53A2.35,2.35,0,0,1,34.19,72.08Zm-1-3.35.74,1.19a.35.35,0,0,0,.52.08h0l3-2.5-1-1.53Z"/><polygon class="cls-23" points="27.64 70.5 29.4 73.13 31.08 73.13 32.82 70.47 31.92 68.92 28.56 68.92 27.64 70.5"/><polygon class="cls-23" points="33.04 82.67 31.08 73.13 29.4 73.13 27.44 82.67 30.23 85.47 33.04 82.67"/><path class="cls-6" d="M30.23,86.47a1,1,0,0,1-.71-.29l-2.79-2.79a1,1,0,0,1-.27-.91l2-9.54a1,1,0,0,1,1-.8h1.68a1,1,0,0,1,1,.8l2,9.54a1,1,0,0,1-.28.91l-2.82,2.79A1,1,0,0,1,30.23,86.47Zm-1.7-4.12,1.7,1.71L32,82.35l-1.74-8.21Z"/><path class="cls-6" d="M31.08,74.13H29.4a1,1,0,0,1-.83-.44L26.8,71.05a1,1,0,0,1,0-1.06l.92-1.58a1,1,0,0,1,.86-.49h3.36a1,1,0,0,1,.87.5L33.68,70a1,1,0,0,1,0,1l-1.73,2.66A1,1,0,0,1,31.08,74.13Zm-1.15-2h.61l1.1-1.69-.3-.52H29.13l-.32.54Z"/><path class="cls-12" d="M23.92,119.91h.6a3.7,3.7,0,0,1,3.7,3.7V125a0,0,0,0,1,0,0H20.89a.67.67,0,0,1-.67-.67v-.72A3.7,3.7,0,0,1,23.92,119.91Z"/><path class="cls-6" d="M28.22,126H20.89a1.67,1.67,0,0,1-1.67-1.67v-.72a4.7,4.7,0,0,1,4.7-4.7h.6a4.7,4.7,0,0,1,4.7,4.7V125A1,1,0,0,1,28.22,126Zm-7-2h6v-.39a2.7,2.7,0,0,0-2.7-2.7h-.6a2.7,2.7,0,0,0-2.7,2.7Z"/><path class="cls-12" d="M35.92,119.91h.6a3.7,3.7,0,0,1,3.7,3.7v.72a.67.67,0,0,1-.67.67H32.22a0,0,0,0,1,0,0v-1.39A3.7,3.7,0,0,1,35.92,119.91Z"/><path class="cls-6" d="M39.55,126H32.22a1,1,0,0,1-1-1v-1.39a4.7,4.7,0,0,1,4.7-4.7h.6a4.7,4.7,0,0,1,4.7,4.7v.72A1.67,1.67,0,0,1,39.55,126Zm-6.33-2h6v-.39a2.7,2.7,0,0,0-2.7-2.7h-.6a2.7,2.7,0,0,0-2.7,2.7Z"/><path class="cls-11" d="M31.32,65H29.11a4.3,4.3,0,0,1-3-1.24l-2.61-2.59a4.22,4.22,0,0,1-1.25-3V50.83c0-6.18,16-6.18,16,0v7.34a4.22,4.22,0,0,1-1.25,3l-2.61,2.59A4.3,4.3,0,0,1,31.32,65Z"/><g class="cls-1"><path class="cls-10" d="M34.35,61a4.3,4.3,0,0,1-3,1.24H29.11a4.3,4.3,0,0,1-3-1.24l-2.61-2.59a4.22,4.22,0,0,1-1.25-3v2.8a4.22,4.22,0,0,0,1.25,3l2.61,2.59a4.3,4.3,0,0,0,3,1.24h2.21a4.3,4.3,0,0,0,3-1.24L37,61.17a4.22,4.22,0,0,0,1.25-3v-2.8a4.22,4.22,0,0,1-1.25,3Z"/></g><g class="cls-1"><path class="cls-10" d="M38.12,53.69V50.51c0-5.75-15.85-5.75-15.85,0v2.91c.72-.84,1.88-1.49,2.27-2.66,4.5,2.1,9,.24,12,.78A2.35,2.35,0,0,1,38.12,53.69Z"/></g><path class="cls-6" d="M31.32,66H29.11a5.27,5.27,0,0,1-3.73-1.53l-2.61-2.59a5.26,5.26,0,0,1-1.55-3.71V50.83c0-3.87,4.67-5.63,9-5.63s9,1.76,9,5.63v7.34a5.18,5.18,0,0,1-1.55,3.71l-2.61,2.59A5.34,5.34,0,0,1,31.32,66Zm-1.1-18.8c-3.48,0-7,1.25-7,3.63v7.34a3.2,3.2,0,0,0,1,2.29L26.79,63a3.28,3.28,0,0,0,2.32,1h2.21a3.32,3.32,0,0,0,2.32-1l2.61-2.59a3.19,3.19,0,0,0,1-2.29V50.83a3,3,0,0,0-2-2.59A11.47,11.47,0,0,0,30.22,47.2Z"/><path class="cls-12" d="M35.4,44c2.3,1.06,4.26,2.25,4.26,5.52a11.38,11.38,0,0,1-.25,2.28c-.15.71-1.18.39-1.18.39s0-1.91-1.4-2.45c-3.52-1.41-9.25,1.07-13.13-1.56A3.56,3.56,0,0,1,22.52,51s-1.36,0-1.45-.78c-.39-3.51,1.06-5.07,2.62-4.68C27.6,41.62,34,43.32,35.4,44Z"/><g class="cls-1"><path class="cls-3" d="M23.69,47.45c3.9-3.9,10.32-2.2,11.7-1.56,2.07,1,4,1.57,4.26,4.15.3-3.7-1.83-5-4.26-6.08-1.38-.64-7.8-2.34-11.7,1.56-1.48-.37-2.89,1-2.66,4.18C21.21,47.6,22.47,47.14,23.69,47.45Z"/></g><path class="cls-6" d="M38.71,53.22a2.75,2.75,0,0,1-.78-.12,1,1,0,0,1-.7-.89,2.3,2.3,0,0,0-.9-1.65c-1-.56-2.68-.44-4.46-.31-2.3.17-4.9.36-7.37-.67a5.17,5.17,0,0,1-1.19,2,1.07,1.07,0,0,1-.79.38h0c-1.12,0-2.31-.52-2.44-1.67-.26-2.35.21-4.18,1.33-5.16a2.75,2.75,0,0,1,1.94-.69C27.57,40.68,33.72,42.13,35.8,43s4.76,2.57,4.86,6.41A11,11,0,0,1,40.39,52a1.52,1.52,0,0,1-.72,1A1.86,1.86,0,0,1,38.71,53.22Zm-4.64-5.08a6.47,6.47,0,0,1,3.25.68,3.51,3.51,0,0,1,1.32,1.35,6.07,6.07,0,0,0,0-.68C38.59,47,37.15,45.81,35,44.87h0c-1.67-.73-7.19-2.05-10.6,1.35a1,1,0,0,1-.95.26.74.74,0,0,0-.72.17c-.45.39-.85,1.44-.68,3.25l.05,0a2.36,2.36,0,0,0,.53-1.1,1.65,1.65,0,0,1,.88-1.17,1.67,1.67,0,0,1,1.48,0c2.1,1,4.46.82,6.74.65C32.53,48.21,33.32,48.15,34.07,48.15Z"/><path class="cls-6" d="M30.41,59.26a1.83,1.83,0,0,1-1.14-.49,1,1,0,0,1,1.14-1.63,1,1,0,0,1,1.19.23,1,1,0,0,1-.06,1.4A1.83,1.83,0,0,1,30.41,59.26Z"/><path class="cls-6" d="M30.33,62a3.59,3.59,0,0,1-2.09-.53,1,1,0,0,1-.48-1.36,1,1,0,0,1,1.31-.47l.21.12a1.69,1.69,0,0,0,1,.24,1.91,1.91,0,0,0,1.1-.23,1,1,0,0,1,1.29,1.53A3.58,3.58,0,0,1,30.33,62Z"/><path class="cls-6" d="M35.79,55.08a1,1,0,0,1-.45-.11,5.15,5.15,0,0,0-1.71,0c-.45,0-.92.09-1.36.09a1,1,0,0,1,0-2c.36,0,.76,0,1.16-.08a5.31,5.31,0,0,1,2.8.19,1,1,0,0,1-.45,1.89Z"/><path class="cls-6" d="M26.41,57.23a1.36,1.36,0,1,1,1.36-1.36A1.36,1.36,0,0,1,26.41,57.23Zm0-2a.64.64,0,1,0,.64.64A.64.64,0,0,0,26.41,55.23Z"/><path class="cls-6" d="M28.38,55.08a11.59,11.59,0,0,1-1.55-.14,4.62,4.62,0,0,0-1.52-.07,1,1,0,1,1-.89-1.79A4.71,4.71,0,0,1,27.1,53a10.05,10.05,0,0,0,1.28.12,1,1,0,0,1,0,2Z"/><path class="cls-6" d="M34.29,57.23a1.36,1.36,0,1,1,1.36-1.36A1.36,1.36,0,0,1,34.29,57.23Zm0-2a.64.64,0,1,0,.64.64A.64.64,0,0,0,34.29,55.23Z"/><circle class="cls-6" cx="26.41" cy="55.87" r="1"/><circle class="cls-6" cx="34.29" cy="55.87" r="1"/><path class="cls-2" d="M72.4,89.9H56v2.87H51.26L50,82.19a7,7,0,0,1,0-1.78l.92-7.74a5,5,0,0,1,2.82-4l5-2.27c.5,1.64,2.95,3,5.5,3a6.05,6.05,0,0,0,5.46-3.13h.05l5,2.38a5,5,0,0,1,2.78,3.95l.92,7.78a7,7,0,0,1,0,1.78L77.18,92.76H72.4Z"/><g class="cls-1"><path class="cls-3" d="M50.09,82.92l.83-7a5,5,0,0,1,2.82-4l4.06-2c.84,1.56,3.83,2.78,6.39,2.78A9.34,9.34,0,0,0,70.62,70l4.11,2a5,5,0,0,1,2.78,3.95l.83,7,.09-.73a7,7,0,0,0,0-1.78l-.92-7.78a5,5,0,0,0-2.78-3.95l-5-2.38h-.05a6.05,6.05,0,0,1-5.46,3.13c-2.55,0-5-1.38-5.5-3l-5,2.27a5,5,0,0,0-2.82,4L50,80.41a7,7,0,0,0,0,1.78Z"/></g><polygon class="cls-3" points="55.17 92.76 51.22 92.76 50.85 89.18 55.17 89.18 55.17 92.76"/><polygon class="cls-3" points="73.32 92.76 77.27 92.88 77.66 89.18 73.32 89.18 73.32 92.76"/><path class="cls-11" d="M51.22,93h4a0,0,0,0,1,0,0v5.6a0,0,0,0,1,0,0h-.64a3.36,3.36,0,0,1-3.36-3.36V93A0,0,0,0,1,51.22,93Z"/><path class="cls-6" d="M55.22,99.6h-.64a4.37,4.37,0,0,1-4.36-4.36V93a1,1,0,0,1,1-1h4a1,1,0,0,1,1,1v5.6A1,1,0,0,1,55.22,99.6Zm-3-5.6v1.24a2.37,2.37,0,0,0,2,2.33V94Z"/><path class="cls-11" d="M76.58,93h.64a0,0,0,0,1,0,0v5.6a0,0,0,0,1,0,0h-4a0,0,0,0,1,0,0V96.36A3.36,3.36,0,0,1,76.58,93Z" transform="translate(150.44 191.6) rotate(180)"/><path class="cls-6" d="M73.86,99.6h-.64a1,1,0,0,1-1-1V93a1,1,0,0,1,1-1h4a1,1,0,0,1,1,1v2.24A4.37,4.37,0,0,1,73.86,99.6Zm.36-5.6v3.57a2.37,2.37,0,0,0,2-2.33V94Z"/><path class="cls-6" d="M73.22,90.9a1,1,0,0,1-1-1V77.41a2.4,2.4,0,0,0-.71-1.71,1,1,0,0,1,1.42-1.41,4.39,4.39,0,0,1,1.29,3.12V89.9A1,1,0,0,1,73.22,90.9Z"/><path class="cls-6" d="M55.22,90.9a1,1,0,0,1-1-1V77.41a4.38,4.38,0,0,1,1.29-3.12,1,1,0,0,1,1.41,1.41,2.4,2.4,0,0,0-.71,1.71V89.9A1,1,0,0,1,55.22,90.9Z"/><path class="cls-6" d="M77.18,94H72.4a1,1,0,0,1,0-2h3.88l1.15-9.93a6,6,0,0,0,0-1.53l-.92-7.79a4,4,0,0,0-2.21-3.16l-5-2.38a1,1,0,1,1,.86-1.81l5,2.38a6,6,0,0,1,3.34,4.73l.92,7.78a8,8,0,0,1,0,2l-1.25,10.8A1,1,0,0,1,77.18,94Z"/><path class="cls-6" d="M56,94H51.26a1,1,0,0,1-1-.88L49,82.3a8,8,0,0,1,0-2l.92-7.74a6,6,0,0,1,3.4-4.77l5-2.27.44.9.36.93h0L54.17,69.6a4,4,0,0,0-2.25,3.18L51,80.53a6,6,0,0,0,0,1.53L52.15,92H56a1,1,0,0,1,0,2Z"/><polygon class="cls-23" points="55.22 124 62.22 124 62.22 97 66.22 97 66.22 124 73.22 124 73.22 89.9 55.22 89.9 55.22 124"/><path class="cls-6" d="M73.22,125h-7a1,1,0,0,1-1-1V98h-2v26a1,1,0,0,1-1,1h-7a1,1,0,0,1-1-1V89.9a1,1,0,0,1,1-1h18a1,1,0,0,1,1,1V124A1,1,0,0,1,73.22,125Zm-6-2h5V90.9h-16V123h5V97a1,1,0,0,1,1-1h4a1,1,0,0,1,1,1Z"/><path class="cls-6" d="M55.22,95.7A1,1,0,0,1,54.51,94l4.83-4.8a1,1,0,0,1,1.41,1.42l-4.83,4.8A1,1,0,0,1,55.22,95.7Z"/><path class="cls-6" d="M73.14,95.4a1,1,0,0,1-.71-.29l-4.5-4.5a1,1,0,0,1,1.41-1.41l4.5,4.5a1,1,0,0,1-.71,1.71Z"/><path class="cls-6" d="M77.22,90h-4a1,1,0,0,1,0-2h4a1,1,0,0,1,0,2Z"/><path class="cls-6" d="M55.22,90H51.45a1,1,0,0,1,0-2h3.77a1,1,0,0,1,0,2Z"/><path class="cls-6" d="M50.06,82.3a1,1,0,0,1-.34-1.94l1.72-.61a1,1,0,0,1,.67,1.88l-1.72.61A1,1,0,0,1,50.06,82.3Z"/><path class="cls-6" d="M78.37,82.3a1,1,0,0,1-.33-.06l-1.63-.57a1,1,0,0,1,.66-1.89l1.63.57a1,1,0,0,1-.33,1.94Z"/><polygon class="cls-20" points="70.72 68.87 57.77 68.87 57.83 64.42 70.64 64.42 70.72 68.87"/><path class="cls-6" d="M70.72,69.87h-13a1,1,0,0,1-1-1l.06-4.45a1,1,0,0,1,1-1H70.64a1,1,0,0,1,1,1l.08,4.45a1,1,0,0,1-1,1Zm-11.94-2H69.7l0-2.45H58.82Z"/><path class="cls-9" d="M68.94,63.84a2.13,2.13,0,0,0,1,2.65c-.75,1.62-3.64,2.43-5.67,3-2-.57-5.15-1.4-5.67-3a2.09,2.09,0,0,0,1-2.65Z"/><g class="cls-1"><polygon class="cls-21" points="67.89 68.92 65.2 68.92 64.24 69.5 63.25 68.92 60.6 68.92 60.6 71.35 67.89 71.35 67.89 68.92"/></g><g class="cls-1"><path class="cls-10" d="M68.94,63.84H59.53a1.34,1.34,0,0,1,0,1.33l.58.49a4.85,4.85,0,0,0,3.11,1.08h2a4.85,4.85,0,0,0,3.11-1.08l.59-.5A1.33,1.33,0,0,1,68.94,63.84Z"/></g><path class="cls-6" d="M64.24,70.5a1,1,0,0,1-.47-.12l-5.67-3a1,1,0,0,1,0-1.74c.09-.06.92-.58.55-1.38a1,1,0,0,1,1.82-.82,2.87,2.87,0,0,1-.2,2.81l4,2.12,4-2.13A2.84,2.84,0,0,1,68,63.44a1,1,0,1,1,1.83.8c-.31.71.32,1.23.6,1.42a1,1,0,0,1-.08,1.72l-5.67,3A1,1,0,0,1,64.24,70.5Z"/><path class="cls-22" d="M59.41,70.76l-3.67-3.06,2-3.24,4.86,4-1.2,1.93A1.35,1.35,0,0,1,59.41,70.76Z"/><path class="cls-22" d="M69.07,70.76l3.67-3.06-2-3.24-4.86,4,1.2,1.93A1.35,1.35,0,0,0,69.07,70.76Z"/><g class="cls-1"><polygon class="cls-3" points="57.77 66.09 61.96 69.58 62.62 68.52 57.77 64.47 55.74 67.71 56.41 68.26 57.77 66.09"/></g><g class="cls-1"><polygon class="cls-3" points="70.7 66.09 72.06 68.26 72.73 67.71 70.7 64.47 65.84 68.52 66.51 69.58 70.7 66.09"/></g><path class="cls-6" d="M60.27,72.08a2.35,2.35,0,0,1-1.5-.55L55.1,68.48a1,1,0,0,1-.21-1.3l2-3.24a1,1,0,0,1,1.49-.24l4.86,4a1,1,0,0,1,.21,1.3L62.27,71A2.35,2.35,0,0,1,60.65,72ZM57.05,67.5,60,70h0a.35.35,0,0,0,.52-.08l.74-1.19L58,66Z"/><path class="cls-6" d="M68.19,72.08l-.37,0A2.35,2.35,0,0,1,66.2,71L65,69a1,1,0,0,1,.21-1.3l4.86-4a1,1,0,0,1,1.49.24l2,3.24a1,1,0,0,1-.21,1.3L69.7,71.53A2.35,2.35,0,0,1,68.19,72.08Zm-1-3.35.74,1.19a.35.35,0,0,0,.52.08h0l3-2.5-1-1.53Z"/><polygon class="cls-16" points="61.63 70.5 63.4 73.13 65.08 73.13 66.82 70.47 65.92 68.92 62.56 68.92 61.63 70.5"/><path class="cls-6" d="M65.08,74.13H63.4a1,1,0,0,1-.83-.44L60.8,71.05a1,1,0,0,1,0-1.06l.92-1.58a1,1,0,0,1,.86-.49h3.36a1,1,0,0,1,.87.5L67.68,70a1,1,0,0,1,0,1l-1.73,2.66A1,1,0,0,1,65.08,74.13Zm-1.15-2h.61l1.1-1.69-.3-.52H63.13l-.32.54Z"/><polygon class="cls-16" points="67.04 82.67 65.08 73.13 63.4 73.13 61.44 82.67 64.23 85.47 67.04 82.67"/><path class="cls-6" d="M64.23,86.47a1,1,0,0,1-.71-.29l-2.79-2.79a1,1,0,0,1-.27-.91l2-9.54a1,1,0,0,1,1-.8h1.68a1,1,0,0,1,1,.8l2,9.54a1,1,0,0,1-.28.91l-2.82,2.79A1,1,0,0,1,64.23,86.47Zm-1.7-4.12,1.7,1.71L66,82.35l-1.74-8.21Z"/><polygon class="cls-16" points="67.04 82.67 65.08 73.13 63.4 73.13 61.44 82.67 64.23 85.47 67.04 82.67"/><path class="cls-6" d="M64.23,86.47a1,1,0,0,1-.71-.29l-2.79-2.79a1,1,0,0,1-.27-.91l2-9.54a1,1,0,0,1,1-.8h1.68a1,1,0,0,1,1,.8l2,9.54a1,1,0,0,1-.28.91l-2.82,2.79A1,1,0,0,1,64.23,86.47Zm-1.7-4.12,1.7,1.71L66,82.35l-1.74-8.21Z"/><polygon class="cls-16" points="61.63 70.5 63.4 73.13 65.08 73.13 66.82 70.47 65.92 68.92 62.56 68.92 61.63 70.5"/><path class="cls-6" d="M65.08,74.13H63.4a1,1,0,0,1-.83-.44L60.8,71.05a1,1,0,0,1,0-1.06l.92-1.58a1,1,0,0,1,.86-.49h3.36a1,1,0,0,1,.87.5L67.68,70a1,1,0,0,1,0,1l-1.73,2.66A1,1,0,0,1,65.08,74.13Zm-1.15-2h.61l1.1-1.69-.3-.52H63.13l-.32.54Z"/><path class="cls-12" d="M57.92,119.91h.6a3.7,3.7,0,0,1,3.7,3.7V125a0,0,0,0,1,0,0H54.89a.67.67,0,0,1-.67-.67v-.72A3.7,3.7,0,0,1,57.92,119.91Z"/><path class="cls-6" d="M62.22,126H54.89a1.67,1.67,0,0,1-1.67-1.67v-.72a4.7,4.7,0,0,1,4.7-4.7h.6a4.7,4.7,0,0,1,4.7,4.7V125A1,1,0,0,1,62.22,126Zm-7-2h6v-.39a2.7,2.7,0,0,0-2.7-2.7h-.6a2.7,2.7,0,0,0-2.7,2.7Z"/><path class="cls-12" d="M69.92,119.91h.6a3.7,3.7,0,0,1,3.7,3.7v.72a.67.67,0,0,1-.67.67H66.22a0,0,0,0,1,0,0v-1.39a3.7,3.7,0,0,1,3.7-3.7Z"/><path class="cls-6" d="M73.55,126H66.22a1,1,0,0,1-1-1v-1.39a4.7,4.7,0,0,1,4.7-4.7h.6a4.7,4.7,0,0,1,4.7,4.7v.72A1.67,1.67,0,0,1,73.55,126Zm-6.33-2h6v-.39a2.7,2.7,0,0,0-2.7-2.7h-.6a2.7,2.7,0,0,0-2.7,2.7Z"/><path class="cls-11" d="M65.32,65H63.11a4.3,4.3,0,0,1-3-1.24l-2.61-2.59a4.22,4.22,0,0,1-1.25-3V50.83c0-6.18,16-6.18,16,0v7.34a4.22,4.22,0,0,1-1.25,3l-2.61,2.59A4.3,4.3,0,0,1,65.32,65Z"/><g class="cls-1"><path class="cls-10" d="M68.35,61a4.3,4.3,0,0,1-3,1.24H63.11a4.3,4.3,0,0,1-3-1.24l-2.61-2.59a4.22,4.22,0,0,1-1.25-3v2.8a4.22,4.22,0,0,0,1.25,3l2.61,2.59a4.3,4.3,0,0,0,3,1.24h2.21a4.3,4.3,0,0,0,3-1.24L71,61.17a4.22,4.22,0,0,0,1.25-3v-2.8a4.22,4.22,0,0,1-1.25,3Z"/></g><g class="cls-1"><path class="cls-10" d="M72.12,53.69V50.51c0-5.75-15.85-5.75-15.85,0v2.91c.72-.84,1.88-1.49,2.27-2.66,4.5,2.1,9,.24,12,.78A2.35,2.35,0,0,1,72.12,53.69Z"/></g><path class="cls-6" d="M65.32,66H63.11a5.27,5.27,0,0,1-3.73-1.53l-2.61-2.59a5.26,5.26,0,0,1-1.55-3.71V50.83c0-3.87,4.67-5.63,9-5.63s9,1.76,9,5.63v7.34a5.18,5.18,0,0,1-1.55,3.71l-2.61,2.59A5.34,5.34,0,0,1,65.32,66Zm-1.1-18.8c-3.48,0-7,1.25-7,3.63v7.34a3.2,3.2,0,0,0,1,2.29L60.79,63a3.28,3.28,0,0,0,2.32,1h2.21a3.32,3.32,0,0,0,2.32-1l2.61-2.59a3.19,3.19,0,0,0,1-2.29V50.83a3,3,0,0,0-2-2.59A11.47,11.47,0,0,0,64.22,47.2Z"/><path class="cls-13" d="M69.4,44c2.3,1.06,4.26,2.25,4.26,5.52a11.38,11.38,0,0,1-.25,2.28c-.15.71-1.18.39-1.18.39s0-1.91-1.4-2.45c-3.52-1.41-9.25,1.07-13.13-1.56A3.56,3.56,0,0,1,56.52,51s-1.36,0-1.45-.78c-.39-3.51,1.06-5.07,2.62-4.68C61.6,41.62,68,43.32,69.4,44Z"/><g class="cls-1"><path class="cls-3" d="M57.69,47.45c3.9-3.9,10.32-2.2,11.7-1.56,2.07,1,4,1.57,4.26,4.15.3-3.7-1.83-5-4.26-6.08-1.38-.64-7.8-2.34-11.7,1.56-1.48-.37-2.89,1-2.66,4.18C55.21,47.6,56.47,47.14,57.69,47.45Z"/></g><path class="cls-6" d="M72.71,53.22a2.75,2.75,0,0,1-.78-.12,1,1,0,0,1-.7-.89,2.3,2.3,0,0,0-.9-1.65c-1-.56-2.68-.44-4.46-.31-2.3.17-4.9.36-7.37-.67a5.17,5.17,0,0,1-1.19,2,1.07,1.07,0,0,1-.79.38h0c-1.12,0-2.31-.52-2.44-1.67-.26-2.35.21-4.18,1.33-5.16a2.75,2.75,0,0,1,1.94-.69C61.57,40.68,67.72,42.13,69.8,43s4.76,2.57,4.86,6.41A11,11,0,0,1,74.39,52a1.52,1.52,0,0,1-.72,1A1.86,1.86,0,0,1,72.71,53.22Zm-4.64-5.08a6.47,6.47,0,0,1,3.25.68,3.51,3.51,0,0,1,1.32,1.35,6.07,6.07,0,0,0,0-.68C72.59,47,71.15,45.81,69,44.87h0c-1.67-.73-7.19-2.05-10.6,1.35a1,1,0,0,1-.95.26.74.74,0,0,0-.72.17c-.45.39-.85,1.44-.68,3.25l.05,0a2.36,2.36,0,0,0,.53-1.1,1.65,1.65,0,0,1,.88-1.17,1.67,1.67,0,0,1,1.48,0c2.1,1,4.46.82,6.74.65C66.53,48.21,67.32,48.15,68.07,48.15Z"/><path class="cls-6" d="M64.41,59.26a1.83,1.83,0,0,1-1.14-.49,1,1,0,0,1,1.14-1.63,1,1,0,0,1,1.19.23,1,1,0,0,1-.06,1.4A1.83,1.83,0,0,1,64.41,59.26Z"/><path class="cls-6" d="M64.33,62a3.59,3.59,0,0,1-2.09-.53,1,1,0,0,1-.48-1.36,1,1,0,0,1,1.31-.47l.21.12a1.69,1.69,0,0,0,1,.24,1.91,1.91,0,0,0,1.1-.23,1,1,0,0,1,1.29,1.53A3.58,3.58,0,0,1,64.33,62Z"/><path class="cls-6" d="M69.79,55.08a1,1,0,0,1-.45-.11,5.15,5.15,0,0,0-1.71,0c-.45,0-.92.09-1.36.09a1,1,0,0,1,0-2c.36,0,.76,0,1.16-.08a5.31,5.31,0,0,1,2.8.19,1,1,0,0,1-.45,1.89Z"/><path class="cls-6" d="M60.41,57.23a1.36,1.36,0,1,1,1.36-1.36A1.36,1.36,0,0,1,60.41,57.23Zm0-2a.64.64,0,1,0,.64.64A.64.64,0,0,0,60.41,55.23Z"/><path class="cls-6" d="M62.38,55.08a11.59,11.59,0,0,1-1.55-.14,4.62,4.62,0,0,0-1.52-.07,1,1,0,1,1-.89-1.79A4.71,4.71,0,0,1,61.1,53a10.05,10.05,0,0,0,1.28.12,1,1,0,0,1,0,2Z"/><path class="cls-6" d="M68.29,57.23a1.36,1.36,0,1,1,1.36-1.36A1.36,1.36,0,0,1,68.29,57.23Zm0-2a.64.64,0,1,0,.64.64A.64.64,0,0,0,68.29,55.23Z"/><circle class="cls-6" cx="60.41" cy="55.87" r="1"/><circle class="cls-6" cx="68.29" cy="55.87" r="1"/><path class="cls-22" d="M120.4,79.9H104v2.87H99.26L98,72.19a7,7,0,0,1,0-1.78l.92-7.74a5,5,0,0,1,2.82-4l5-2.27c.5,1.64,2.95,3,5.5,3a6.05,6.05,0,0,0,5.46-3.13h.05l5,2.38a5,5,0,0,1,2.78,3.95l.92,7.78a7,7,0,0,1,0,1.78l-1.26,10.57H120.4Z"/><path class="cls-3" d="M98.09,72.92l.83-7a5,5,0,0,1,2.82-4l4.06-2c.84,1.56,3.83,2.78,6.39,2.78A9.34,9.34,0,0,0,118.62,60l4.11,2a5,5,0,0,1,2.78,3.95l.83,7,.09-.73a7,7,0,0,0,0-1.78l-.92-7.78a5,5,0,0,0-2.78-3.95l-5-2.38h-.05a6.05,6.05,0,0,1-5.46,3.13c-2.55,0-5-1.38-5.5-3l-5,2.27a5,5,0,0,0-2.82,4L98,70.41a7,7,0,0,0,0,1.78Z"/><polygon class="cls-3" points="103.17 82.76 99.22 82.76 98.85 79.18 103.17 79.18 103.17 82.76"/><polygon class="cls-3" points="121.32 82.76 125.27 82.88 125.66 79.18 121.32 79.18 121.32 82.76"/><path class="cls-11" d="M99.22,83h4a0,0,0,0,1,0,0v5.6a0,0,0,0,1,0,0h-.64a3.36,3.36,0,0,1-3.36-3.36V83A0,0,0,0,1,99.22,83Z"/><path class="cls-6" d="M103.22,89.6h-.64a4.37,4.37,0,0,1-4.36-4.36V83a1,1,0,0,1,1-1h4a1,1,0,0,1,1,1v5.6A1,1,0,0,1,103.22,89.6Zm-3-5.6v1.24a2.37,2.37,0,0,0,2,2.33V84Z"/><path class="cls-11" d="M124.58,83h.64a0,0,0,0,1,0,0v5.6a0,0,0,0,1,0,0h-4a0,0,0,0,1,0,0V86.36A3.36,3.36,0,0,1,124.58,83Z" transform="translate(246.44 171.6) rotate(180)"/><path class="cls-6" d="M121.86,89.6h-.64a1,1,0,0,1-1-1V83a1,1,0,0,1,1-1h4a1,1,0,0,1,1,1v2.24A4.37,4.37,0,0,1,121.86,89.6Zm.36-5.6v3.57a2.37,2.37,0,0,0,2-2.33V84Z"/><path class="cls-6" d="M121.22,80.9a1,1,0,0,1-1-1V67.41a2.4,2.4,0,0,0-.71-1.71,1,1,0,0,1,1.42-1.41,4.39,4.39,0,0,1,1.29,3.12V79.9A1,1,0,0,1,121.22,80.9Z"/><path class="cls-6" d="M103.22,80.9a1,1,0,0,1-1-1V67.41a4.38,4.38,0,0,1,1.29-3.12,1,1,0,0,1,1.41,1.41,2.4,2.4,0,0,0-.71,1.71V79.9A1,1,0,0,1,103.22,80.9Z"/><path class="cls-6" d="M125.18,84H120.4a1,1,0,0,1,0-2h3.88l1.15-9.93a6,6,0,0,0,0-1.53l-.92-7.79a4,4,0,0,0-2.21-3.16l-5-2.38a1,1,0,0,1,.86-1.81l5,2.38a6,6,0,0,1,3.34,4.73l.92,7.78a8,8,0,0,1,0,2l-1.25,10.8A1,1,0,0,1,125.18,84Z"/><path class="cls-6" d="M104,84H99.26a1,1,0,0,1-1-.88L97,72.3a8,8,0,0,1,0-2l.92-7.74a6,6,0,0,1,3.4-4.77l5-2.27.1,0a1,1,0,0,1,.67,1.88h0l-4.87,2.24a4,4,0,0,0-2.25,3.18L99,70.53a6,6,0,0,0,0,1.53L100.15,82H104a1,1,0,0,1,0,2Z"/><polygon class="cls-2" points="103.22 114 110.22 114 110.22 87 114.22 87 114.22 114 121.22 114 121.22 79.9 103.22 79.9 103.22 114"/><path class="cls-6" d="M121.22,115h-7a1,1,0,0,1-1-1V88h-2v26a1,1,0,0,1-1,1h-7a1,1,0,0,1-1-1V79.9a1,1,0,0,1,1-1h18a1,1,0,0,1,1,1V114A1,1,0,0,1,121.22,115Zm-6-2h5V80.9h-16V113h5V87a1,1,0,0,1,1-1h4a1,1,0,0,1,1,1Z"/><path class="cls-6" d="M103.22,85.7a1,1,0,0,1-.71-1.71l4.83-4.8a1,1,0,0,1,1.41,1.42l-4.83,4.8A1,1,0,0,1,103.22,85.7Z"/><path class="cls-6" d="M121.14,85.4a1,1,0,0,1-.71-.29l-4.5-4.5a1,1,0,0,1,1.41-1.41l4.5,4.5a1,1,0,0,1-.71,1.71Z"/><path class="cls-6" d="M125.22,80h-4a1,1,0,0,1,0-2h4a1,1,0,0,1,0,2Z"/><path class="cls-6" d="M103.22,80H99.45a1,1,0,0,1,0-2h3.77a1,1,0,0,1,0,2Z"/><path class="cls-6" d="M98.06,72.3a1,1,0,0,1-.34-1.94l1.72-.61a1,1,0,0,1,.67,1.88l-1.72.61A1,1,0,0,1,98.06,72.3Z"/><path class="cls-6" d="M126.37,72.3a1,1,0,0,1-.33-.06l-1.63-.57a1,1,0,1,1,.66-1.89l1.63.57a1,1,0,0,1-.33,1.94Z"/><polygon class="cls-20" points="118.72 58.87 105.77 58.87 105.83 54.42 118.64 54.42 118.72 58.87"/><path class="cls-6" d="M118.72,59.87h-13a1,1,0,0,1-1-1l.06-4.45a1,1,0,0,1,1-1h12.81a1,1,0,0,1,1,1l.08,4.45a1,1,0,0,1-1,1Zm-11.94-2H117.7l0-2.45H106.82Z"/><path class="cls-9" d="M116.94,53.84a2.13,2.13,0,0,0,1,2.65c-.75,1.62-3.64,2.43-5.67,3-2-.57-5.15-1.4-5.67-3a2.09,2.09,0,0,0,1-2.65Z"/><g class="cls-1"><polygon class="cls-21" points="115.89 58.92 113.2 58.92 112.24 59.5 111.25 58.92 108.6 58.92 108.6 61.35 115.89 61.35 115.89 58.92"/></g><g class="cls-1"><path class="cls-10" d="M116.94,53.84h-9.42a1.34,1.34,0,0,1,0,1.33l.58.49a4.85,4.85,0,0,0,3.11,1.08h2a4.85,4.85,0,0,0,3.11-1.08l.59-.5A1.33,1.33,0,0,1,116.94,53.84Z"/></g><path class="cls-6" d="M112.24,60.5a1,1,0,0,1-.47-.12l-5.67-3a1,1,0,0,1,0-1.74c.09-.06.92-.58.55-1.38a1,1,0,0,1,1.82-.82,2.87,2.87,0,0,1-.2,2.81l4,2.12,4-2.13a2.84,2.84,0,0,1-.23-2.79,1,1,0,1,1,1.83.8c-.31.71.32,1.23.6,1.42a1,1,0,0,1-.08,1.72l-5.67,3A1,1,0,0,1,112.24,60.5Z"/><path class="cls-22" d="M107.41,60.76l-3.67-3.06,2-3.24,4.86,4-1.2,1.93A1.35,1.35,0,0,1,107.41,60.76Z"/><path class="cls-22" d="M117.07,60.76l3.67-3.06-2-3.24-4.86,4,1.2,1.93A1.35,1.35,0,0,0,117.07,60.76Z"/><g class="cls-1"><polygon class="cls-3" points="105.77 56.09 109.96 59.58 110.62 58.52 105.77 54.47 103.74 57.71 104.41 58.26 105.77 56.09"/></g><g class="cls-1"><polygon class="cls-3" points="118.7 56.09 120.06 58.26 120.73 57.71 118.7 54.47 113.84 58.52 114.51 59.58 118.7 56.09"/></g><path class="cls-6" d="M108.27,62.08a2.35,2.35,0,0,1-1.5-.54l-3.67-3.06a1,1,0,0,1-.21-1.3l2-3.24a1,1,0,0,1,1.49-.24l4.86,4a1,1,0,0,1,.21,1.3L110.27,61A2.35,2.35,0,0,1,108.65,62Zm-3.22-4.58,3,2.5h0a.35.35,0,0,0,.52-.08l.74-1.19L106,56Z"/><path class="cls-6" d="M116.19,62.08l-.37,0A2.35,2.35,0,0,1,114.2,61L113,59a1,1,0,0,1,.21-1.3l4.86-4a1,1,0,0,1,1.49.24l2,3.24a1,1,0,0,1-.21,1.3l-3.67,3.06A2.35,2.35,0,0,1,116.19,62.08Zm-1-3.35.74,1.19a.35.35,0,0,0,.52.08h0l3-2.5-1-1.53Z"/><polygon class="cls-23" points="109.64 60.5 111.4 63.13 113.08 63.13 114.82 60.47 113.92 58.92 110.56 58.92 109.64 60.5"/><polygon class="cls-23" points="115.04 72.67 113.08 63.13 111.4 63.13 109.44 72.67 112.23 75.47 115.04 72.67"/><path class="cls-6" d="M112.23,76.47a1,1,0,0,1-.71-.29l-2.79-2.79a1,1,0,0,1-.27-.91l2-9.54a1,1,0,0,1,1-.8h1.68a1,1,0,0,1,1,.8l2,9.54a1,1,0,0,1-.28.91l-2.82,2.79A1,1,0,0,1,112.23,76.47Zm-1.7-4.12,1.7,1.71L114,72.35l-1.74-8.21Z"/><path class="cls-6" d="M113.08,64.13H111.4a1,1,0,0,1-.83-.44l-1.77-2.63a1,1,0,0,1,0-1.06l.92-1.58a1,1,0,0,1,.86-.49h3.36a1,1,0,0,1,.87.5l.89,1.55a1,1,0,0,1,0,1l-1.73,2.66A1,1,0,0,1,113.08,64.13Zm-1.15-2h.61l1.1-1.69-.3-.52h-2.21l-.32.54Z"/><path class="cls-12" d="M105.92,109.91h.6a3.7,3.7,0,0,1,3.7,3.7V115a0,0,0,0,1,0,0h-7.33a.67.67,0,0,1-.67-.67v-.72A3.7,3.7,0,0,1,105.92,109.91Z"/><path class="cls-6" d="M110.22,116h-7.33a1.67,1.67,0,0,1-1.67-1.67v-.72a4.7,4.7,0,0,1,4.7-4.7h.6a4.7,4.7,0,0,1,4.7,4.7V115A1,1,0,0,1,110.22,116Zm-7-2h6v-.39a2.7,2.7,0,0,0-2.7-2.7h-.6a2.7,2.7,0,0,0-2.7,2.7Z"/><path class="cls-12" d="M117.92,109.91h.6a3.7,3.7,0,0,1,3.7,3.7v.72a.67.67,0,0,1-.67.67h-7.33a0,0,0,0,1,0,0v-1.39a3.7,3.7,0,0,1,3.7-3.7Z"/><path class="cls-6" d="M121.55,116h-7.33a1,1,0,0,1-1-1v-1.39a4.7,4.7,0,0,1,4.7-4.7h.6a4.7,4.7,0,0,1,4.7,4.7v.72A1.67,1.67,0,0,1,121.55,116Zm-6.33-2h6v-.39a2.7,2.7,0,0,0-2.7-2.7h-.6a2.7,2.7,0,0,0-2.7,2.7Z"/><path class="cls-11" d="M113.32,55h-2.21a4.3,4.3,0,0,1-3-1.24l-2.61-2.59a4.22,4.22,0,0,1-1.25-3V40.83c0-6.18,16-6.18,16,0v7.34a4.22,4.22,0,0,1-1.25,3l-2.61,2.59A4.3,4.3,0,0,1,113.32,55Z"/><g class="cls-1"><path class="cls-10" d="M116.35,51a4.3,4.3,0,0,1-3,1.24h-2.21a4.3,4.3,0,0,1-3-1.24l-2.61-2.59a4.22,4.22,0,0,1-1.25-3v2.8a4.22,4.22,0,0,0,1.25,3l2.61,2.59a4.3,4.3,0,0,0,3,1.24h2.21a4.3,4.3,0,0,0,3-1.24L119,51.17a4.22,4.22,0,0,0,1.25-3v-2.8a4.22,4.22,0,0,1-1.25,3Z"/></g><g class="cls-1"><path class="cls-10" d="M120.12,43.69V40.51c0-5.75-15.85-5.75-15.85,0v2.91c.72-.84,1.88-1.49,2.27-2.66,4.5,2.1,9,.24,12,.78A2.35,2.35,0,0,1,120.12,43.69Z"/></g><path class="cls-6" d="M113.32,56h-2.21a5.27,5.27,0,0,1-3.73-1.53l-2.61-2.59a5.26,5.26,0,0,1-1.55-3.71V40.83c0-3.87,4.67-5.63,9-5.63s9,1.76,9,5.63v7.34a5.18,5.18,0,0,1-1.55,3.71l-2.61,2.59A5.34,5.34,0,0,1,113.32,56Zm-1.1-18.8c-3.48,0-7,1.25-7,3.63v7.34a3.2,3.2,0,0,0,1,2.29L108.79,53a3.28,3.28,0,0,0,2.32,1h2.21a3.32,3.32,0,0,0,2.32-1l2.61-2.59a3.19,3.19,0,0,0,1-2.29V40.83a3,3,0,0,0-2-2.59A11.47,11.47,0,0,0,112.22,37.2Z"/><path class="cls-17" d="M117.4,34c2.3,1.06,4.26,2.25,4.26,5.52a11.38,11.38,0,0,1-.25,2.28c-.15.71-1.18.39-1.18.39s0-1.91-1.4-2.45c-3.52-1.41-9.25,1.07-13.13-1.56A3.56,3.56,0,0,1,104.52,41s-1.36,0-1.45-.78c-.39-3.51,1.06-5.07,2.62-4.68C109.6,31.62,116,33.32,117.4,34Z"/><g class="cls-1"><path class="cls-3" d="M105.69,37.45c3.9-3.9,10.32-2.2,11.7-1.56,2.07,1,4,1.57,4.26,4.15.3-3.7-1.83-5-4.26-6.08-1.38-.64-7.8-2.34-11.7,1.56-1.48-.37-2.89,1-2.66,4.18C103.21,37.6,104.47,37.14,105.69,37.45Z"/></g><path class="cls-6" d="M120.71,43.22a2.75,2.75,0,0,1-.78-.12,1,1,0,0,1-.7-.89,2.3,2.3,0,0,0-.9-1.65c-1-.56-2.68-.44-4.46-.31-2.3.17-4.9.36-7.37-.67a5.17,5.17,0,0,1-1.19,2,1.07,1.07,0,0,1-.79.38h0c-1.12,0-2.31-.52-2.44-1.67-.26-2.35.21-4.18,1.33-5.16a2.73,2.73,0,0,1,1.94-.69c4.21-3.78,10.37-2.33,12.44-1.42s4.76,2.57,4.86,6.41a11,11,0,0,1-.27,2.51,1.52,1.52,0,0,1-.72,1A1.86,1.86,0,0,1,120.71,43.22Zm-4.64-5.08a6.47,6.47,0,0,1,3.25.68,3.51,3.51,0,0,1,1.32,1.35,6.07,6.07,0,0,0,0-.68c-.07-2.54-1.51-3.69-3.66-4.63h0c-1.67-.73-7.19-2.05-10.6,1.35a1,1,0,0,1-.95.26.75.75,0,0,0-.72.17c-.45.39-.85,1.44-.68,3.25l.05,0a2.36,2.36,0,0,0,.53-1.1,1.65,1.65,0,0,1,.88-1.17,1.66,1.66,0,0,1,1.48,0c2.1,1,4.46.82,6.74.65C114.53,38.21,115.32,38.15,116.07,38.15Z"/><path class="cls-6" d="M112.41,49.26a1.83,1.83,0,0,1-1.14-.49,1,1,0,0,1,1.14-1.63,1,1,0,0,1,1.19.23,1,1,0,0,1-.06,1.4A1.83,1.83,0,0,1,112.41,49.26Z"/><path class="cls-6" d="M112.33,52a3.59,3.59,0,0,1-2.09-.53,1,1,0,0,1-.48-1.36,1,1,0,0,1,1.31-.47l.21.12a1.69,1.69,0,0,0,1,.24,1.91,1.91,0,0,0,1.1-.23,1,1,0,0,1,1.29,1.53A3.58,3.58,0,0,1,112.33,52Z"/><path class="cls-6" d="M117.79,45.08a1,1,0,0,1-.45-.11,5.16,5.16,0,0,0-1.71,0c-.45,0-.92.09-1.36.09a1,1,0,0,1,0-2c.36,0,.76,0,1.16-.08a5.3,5.3,0,0,1,2.8.19,1,1,0,0,1-.45,1.89Z"/><path class="cls-6" d="M108.41,47.23a1.36,1.36,0,1,1,1.36-1.36A1.36,1.36,0,0,1,108.41,47.23Zm0-2a.64.64,0,1,0,.64.64A.64.64,0,0,0,108.41,45.23Z"/><path class="cls-6" d="M110.38,45.08a11.59,11.59,0,0,1-1.55-.14,4.62,4.62,0,0,0-1.52-.07,1,1,0,0,1-.89-1.79A4.71,4.71,0,0,1,109.1,43a10.05,10.05,0,0,0,1.28.12,1,1,0,0,1,0,2Z"/><path class="cls-6" d="M116.29,47.23a1.36,1.36,0,1,1,1.36-1.36A1.36,1.36,0,0,1,116.29,47.23Zm0-2a.64.64,0,1,0,.64.64A.64.64,0,0,0,116.29,45.23Z"/><circle class="cls-6" cx="108.41" cy="45.87" r="1"/><circle class="cls-6" cx="116.29" cy="45.87" r="1"/><path class="cls-12" d="M100.79,66a15.27,15.27,0,0,0,4.18-.6,4.17,4.17,0,0,0,2.87-5.33c-1.14-3.45-.23-6.24-1-9.64-1.06-4.52-5.15-7.93-10.64-7.93s-9.86,3.26-10.76,7.93c-.65,3.37.23,6.12-.85,9.51a4.2,4.2,0,0,0,2.8,5.32,14.72,14.72,0,0,0,3.95.74Z"/><g class="cls-1"><path class="cls-10" d="M105,63.3a15.27,15.27,0,0,1-4.18.6H91.31a14.72,14.72,0,0,1-3.95-.74c-1.56-.46-2.64-1.18-2.92-2.67a4.19,4.19,0,0,0,2.92,4.8,14.72,14.72,0,0,0,3.95.74h9.48a15.27,15.27,0,0,0,4.18-.6,4.16,4.16,0,0,0,3-4.8C107.67,62.14,106.56,62.88,105,63.3Z"/></g><g class="cls-1"><path class="cls-3" d="M107.18,55.19h0a20.4,20.4,0,0,0-.38-4.72c-1.06-4.52-5.15-7.93-10.64-7.93s-9.86,3.26-10.76,7.93A22.24,22.24,0,0,0,85.15,55a16.43,16.43,0,0,1,.27-2.93c.9-4.67,5.26-7.42,10.76-7.42s9.58,2.9,10.64,7.42A15.24,15.24,0,0,1,107.18,55.19Z"/></g><path class="cls-6" d="M91.9,67h0a20.11,20.11,0,0,1-4.8-.78A5.13,5.13,0,0,1,84,63.73a5.2,5.2,0,0,1-.36-4,15.27,15.27,0,0,0,.54-5,21.46,21.46,0,0,1,.29-4.38c1-5.14,5.82-8.74,11.74-8.74,5.72,0,10.39,3.5,11.61,8.7a19.78,19.78,0,0,1,.41,4.59,15.23,15.23,0,0,0,.59,5,5.2,5.2,0,0,1-.36,4.08,5.1,5.1,0,0,1-3.19,2.53,20.41,20.41,0,0,1-5.05.64,1,1,0,0,1,0-2h0a17.76,17.76,0,0,0,4.49-.57,3.17,3.17,0,0,0,2.17-4,17.08,17.08,0,0,1-.69-5.57,17.91,17.91,0,0,0-.35-4.15c-1-4.28-4.89-7.16-9.67-7.16-4.95,0-9,2.93-9.78,7.12a19.62,19.62,0,0,0-.25,4,17.08,17.08,0,0,1-.63,5.63,3.22,3.22,0,0,0,.22,2.5,3.15,3.15,0,0,0,1.91,1.55,18.18,18.18,0,0,0,4.28.7,1,1,0,0,1,0,2Z"/><path class="cls-11" d="M97.61,106.36v2.86c0,6.44,3.58,13.6,3.58,13.6l.72,1.43a84.55,84.55,0,0,0,.76-17.9Z"/><path class="cls-11" d="M95,106.36s0,1.43,0,2.86a26,26,0,0,1-3.58,12.17l-.72,2.86a86.51,86.51,0,0,1-.72-17.9Z"/><g class="cls-1"><path class="cls-10" d="M94.75,109c0-1.37,0-2.69,0-2.69H89.73q-.08,1.27-.12,2.48C91.17,109,92.93,109,94.75,109Z"/></g><g class="cls-1"><path class="cls-10" d="M102.78,108.89q0-1.24-.12-2.53H97.61v2.7C99.42,109,101.19,109,102.78,108.89Z"/></g><path class="cls-6" d="M101.91,125.26a1,1,0,0,1-.89-.55l-.72-1.43c-.15-.3-3.69-7.45-3.69-14.05v-2.86a1,1,0,0,1,2,0v2.86c0,4.34,1.73,9.09,2.74,11.53a87.93,87.93,0,0,0,.31-14.33,1,1,0,1,1,2-.12,84.82,84.82,0,0,1-.77,18.14,1,1,0,0,1-.84.82Z"/><path class="cls-6" d="M90.45,125.26h0a1,1,0,0,1-.95-.83,86.76,86.76,0,0,1-.73-18.13,1,1,0,1,1,2,.13,90,90,0,0,0,.19,13.35,24.41,24.41,0,0,0,2.82-10.55c0-1.45,0-2.89,0-2.89a1,1,0,0,1,1-1h0a1,1,0,0,1,1,1s0,1.42,0,2.83a26.73,26.73,0,0,1-3.65,12.56l-.68,2.72A1,1,0,0,1,90.45,125.26Z"/><path class="cls-19" d="M90.45,125H86.87v-1.29h0l1.43-1.57,1.43-4.3h3.58v4.3A2.86,2.86,0,0,1,90.45,125Z"/><g class="cls-1"><polygon class="cls-3" points="89.73 117.82 89.02 119.97 93.31 119.97 93.31 117.82 89.73 117.82"/></g><path class="cls-19" d="M101.91,125h3.58v-1.29h0l-1.43-1.57-1.43-4.3H99v4.3A2.86,2.86,0,0,0,101.91,125Z"/><g class="cls-1"><polygon class="cls-3" points="102.62 117.82 103.34 119.97 99.04 119.97 99.04 117.82 102.62 117.82"/></g><path class="cls-6" d="M90.45,126H86.87a1,1,0,0,1-1-1v-1.29a1,1,0,0,1,.26-.67l1.29-1.42,1.37-4.1a1,1,0,0,1,.95-.68h3.58a1,1,0,0,1,1,1v4.3A3.87,3.87,0,0,1,90.45,126ZM88,124h2.49a1.87,1.87,0,0,0,1.86-1.86v-3.3H90.46l-1.2,3.61a1,1,0,0,1-.21.36Z"/><path class="cls-6" d="M105.49,126h-3.58A3.87,3.87,0,0,1,98,122.11v-4.3a1,1,0,0,1,1-1h3.58a1,1,0,0,1,.95.68l1.37,4.1,1.29,1.42a1,1,0,0,1,.26.67V125A1,1,0,0,1,105.49,126ZM100,118.82v3.3a1.87,1.87,0,0,0,1.86,1.86h2.49l-1.08-1.19a1,1,0,0,1-.21-.36l-1.21-3.61Z"/><path class="cls-6" d="M90.45,123.11H88.3a1,1,0,0,1,0-2h2.15a1,1,0,0,1,0,2Z"/><path class="cls-6" d="M104.05,123.11h-2.15a1,1,0,0,1,0-2h2.15a1,1,0,0,1,0,2Z"/><path class="cls-24" d="M101.67,66.42h0l.6.29a11.44,11.44,0,0,1,6.24,7.88l1.94,8.87h-5.21l-1.2-5c.72,2.09-.72,4.43-.63,7.26a45.75,45.75,0,0,1-14,0c.32-2.84-1.52-3.72-.87-7.26l-.82,5h-5.4l1.58-8.62a11.44,11.44,0,0,1,6.35-8.27l.4-.19h0C92.6,70.56,99.76,70.56,101.67,66.42Z"/><g class="cls-1"><path class="cls-3" d="M83.92,77.6a11,11,0,0,1,6-8.27,8.85,8.85,0,0,0,12.27,0,11.76,11.76,0,0,1,6.36,8l1.35,6.16h.59l-1.94-8.87a11.44,11.44,0,0,0-6.24-7.88l-.6-.29h0c-1.91,4.14-9.07,4.14-11,0h0l-.4.19a11.44,11.44,0,0,0-6.35,8.27l-1.58,8.62h.5Z"/><path class="cls-3" d="M88.55,81.2v.05h0Z"/></g><path class="cls-19" d="M103.43,85.76c3.49,4.32,4.49,12.58,5.64,19.17,0,1.91-25.06,1.91-25.06,0,1-6,2.15-14.13,5.41-19.17A45.93,45.93,0,0,0,103.43,85.76Z"/><path class="cls-11" d="M87.25,83.59,86.15,94l-.61,0c-1.32,0-2.71-2.2-1.74-4.89a23.75,23.75,0,0,1-.74-5.51"/><path class="cls-6" d="M86.15,95h0l-.61,0a2.9,2.9,0,0,1-2.25-1.39,5.31,5.31,0,0,1-.5-4.52,27.14,27.14,0,0,1-.69-5.44,1,1,0,0,1,.95-1,1,1,0,0,1,1,.95,23.55,23.55,0,0,0,.69,5.26,1,1,0,0,1,0,.64,3.32,3.32,0,0,0,.17,3,1.53,1.53,0,0,0,.35.38l1-9.35a1,1,0,0,1,2,.21l-1.1,10.4A1,1,0,0,1,86.15,95Z"/><path class="cls-6" d="M84.68,90.11h-.1L83.76,90a1,1,0,0,1-.9-1.09A1,1,0,0,1,84,88l.82.08a1,1,0,0,1-.1,2Z"/><path class="cls-11" d="M105.92,83.59l1,10.4.61,0c1.32,0,2.81-2.2,1.83-4.89a23.75,23.75,0,0,0,.74-5.51"/><path class="cls-6" d="M106.92,95a1,1,0,0,1-1-.9l-1-10.4a1,1,0,1,1,2-.19l.9,9.35a1.68,1.68,0,0,0,.41-.43,3.34,3.34,0,0,0,.2-3,1,1,0,0,1,0-.64,23.52,23.52,0,0,0,.69-5.26,1,1,0,0,1,2,.1,27,27,0,0,1-.69,5.44,5.26,5.26,0,0,1-.53,4.47A3,3,0,0,1,107.56,95L107,95Z"/><path class="cls-6" d="M108.49,90.11a1,1,0,0,1-.1-2l.82-.08a1,1,0,0,1,1.09.9,1,1,0,0,1-.9,1.09l-.82.08Z"/><path class="cls-6" d="M96.54,107.36c-3.32,0-6.41-.13-8.72-.36-3.6-.37-4.81-.89-4.81-2.07a1,1,0,0,1,0-.16l.16-1c1-6,2.16-13.41,5.27-18.35a4.43,4.43,0,0,0-.07-1.14,1,1,0,0,1-.64.23h-5.4a1,1,0,0,1-1-1.18l1.58-8.62a12.47,12.47,0,0,1,6.9-9l.4-.19.11,0a1,1,0,0,1,1.28.63A1,1,0,0,1,91,67.35l-.35.17a10.47,10.47,0,0,0-5.8,7.55l-1.36,7.44h3.35l.61-3.76c0-.14,0-.29.07-.44a1,1,0,0,1,2,.34l-.07.4a6.33,6.33,0,0,0,.43,3.3,7.51,7.51,0,0,1,.51,3.52,1,1,0,0,1-.16.43c-3,4.59-4.16,11.91-5.1,17.8l-.07.44c3,1.13,19.84,1.13,22.9,0l-.33-1.93c-1-5.92-2.11-12.63-5-16.22a1,1,0,0,1-.22-.6,14.78,14.78,0,0,1,.48-3.71,8.42,8.42,0,0,0,.33-2.76l-.14-.59a1,1,0,0,1,1.92-.56,4.65,4.65,0,0,1,.19.77l.85,3.53h3.18l-1.67-7.66a10.37,10.37,0,0,0-5.7-7.19l-.58-.28a1,1,0,0,1-.54-1.23,1,1,0,0,1,1.25-.64h0l.12,0,.6.29a12.36,12.36,0,0,1,6.79,8.57l1.94,8.87a1,1,0,0,1-1,1.21h-5.21a1,1,0,0,1-.73-.31,9.41,9.41,0,0,0-.11,1.25c3.07,4,4.2,10.85,5.21,16.87.14.84.28,1.67.42,2.47a1,1,0,0,1,0,.17C110.07,105.78,110.07,107.36,96.54,107.36Z"/><path class="cls-9" d="M100.72,63.69a2.13,2.13,0,0,0,.94,2.63c-.72,1.65-3.53,2.55-5.5,3.13-2-.59-5-1.39-5.5-3a2.22,2.22,0,0,0,.92-2.74Z"/><g class="cls-1"><path class="cls-10" d="M100.72,63.69H91.59a2.6,2.6,0,0,1,0,1.86,7.06,7.06,0,0,0,9.13,0A2.58,2.58,0,0,1,100.72,63.69Z"/></g><path class="cls-6" d="M96.16,70.45c-3,0-5.81-1.64-6.45-3.73a1,1,0,0,1,.43-1.14,1.28,1.28,0,0,0,.54-1.49,1,1,0,0,1,1.84-.79,3.13,3.13,0,0,1-.6,3.37,5.57,5.57,0,0,0,4.25,1.77,5.34,5.34,0,0,0,4.19-1.93,2.94,2.94,0,0,1-.55-3.21,1,1,0,0,1,1.85.77,1.11,1.11,0,0,0,.55,1.42,1,1,0,0,1,.34,1.22A7.06,7.06,0,0,1,96.16,70.45Z"/><path class="cls-6" d="M96.87,87.31a34.1,34.1,0,0,1-7.42-.57,1,1,0,1,1,.65-1.89c1.88.64,11.65.55,12.79,0a1,1,0,0,1,.83,1.82C102.8,87.13,99.87,87.31,96.87,87.31Z"/><circle class="cls-13" cx="96.18" cy="86.31" r="2.15"/><path class="cls-6" d="M96.18,89.46a3.15,3.15,0,1,1,3.15-3.15A3.15,3.15,0,0,1,96.18,89.46Zm0-4.3a1.15,1.15,0,1,0,1.15,1.15A1.15,1.15,0,0,0,96.18,85.17Z"/><g class="cls-8"><path class="cls-6" d="M92.66,81.46A4.6,4.6,0,0,1,88,77a1,1,0,0,1,2,0,2.71,2.71,0,0,0,5.4,0,1,1,0,0,1,2,0A4.6,4.6,0,0,1,92.66,81.46Z"/><path class="cls-6" d="M100.06,81.46A4.6,4.6,0,0,1,95.36,77a1,1,0,0,1,2,0,2.71,2.71,0,0,0,5.4,0,1,1,0,0,1,2,0A4.6,4.6,0,0,1,100.06,81.46Z"/></g><path class="cls-15" d="M89.38,75.25a19.08,19.08,0,0,0-.82,3.25"/><path class="cls-6" d="M88.55,79.5h-.1a1,1,0,0,1-.89-1.1,19.66,19.66,0,0,1,.87-3.47,1,1,0,1,1,1.89.66,17.62,17.62,0,0,0-.77,3A1,1,0,0,1,88.55,79.5Z"/><path class="cls-15" d="M103.23,75.25a19,19,0,0,1,.82,3.25"/><path class="cls-6" d="M104.05,79.5a1,1,0,0,1-1-.92,17.41,17.41,0,0,0-.77-3,1,1,0,1,1,1.89-.65,19.21,19.21,0,0,1,.88,3.49,1,1,0,0,1-.92,1.08Z"/><path class="cls-6" d="M96.75,104.18a1,1,0,0,1-.62-.22l-1.46-1.16-1.73,1.13a1,1,0,0,1-1.25-.13l-1.15-1.14-1.53,1a1,1,0,0,1-1.26-.15l-1.25-1.29-1.29.72a1,1,0,1,1-1-1.74l2-1.1a1,1,0,0,1,1.21.18l1.22,1.25,1.52-1a1,1,0,0,1,1.24.13l1.15,1.13,1.66-1.08a1,1,0,0,1,1.17.05l1.41,1.12,1.45-1.14a1,1,0,0,1,1.22,0l1.35,1,1.19-1.13a1,1,0,0,1,1.25-.1l1.41.95,1.13-1.22a1,1,0,0,1,1.25-.18l1.87,1.12a1,1,0,1,1-1,1.72l-1.17-.7-1.16,1.25a1,1,0,0,1-1.29.15l-1.45-1-1.22,1.16a1,1,0,0,1-1.29.08l-1.41-1.06L97.37,104A1,1,0,0,1,96.75,104.18Z"/><path class="cls-11" d="M96.44,65.53H96a4.8,4.8,0,0,1-2.31-.59l-1.19-.65a8.18,8.18,0,0,1-4.28-7.17v-5.2c0-7.64,16-7.64,16,0v5.2a8.18,8.18,0,0,1-4.28,7.17l-1.19.65A4.8,4.8,0,0,1,96.44,65.53Z"/><g class="cls-1"><path class="cls-10" d="M99.94,62.08l-1.19.65a4.8,4.8,0,0,1-2.31.59H96a4.8,4.8,0,0,1-2.31-.59l-1.19-.65a8.18,8.18,0,0,1-4.28-7.17v2.21a8.18,8.18,0,0,0,4.28,7.17l1.19.65a4.8,4.8,0,0,0,2.31.59h.45a4.8,4.8,0,0,0,2.31-.59l1.19-.65a8.18,8.18,0,0,0,4.28-7.17V54.91A8.18,8.18,0,0,1,99.94,62.08Z"/></g><path class="cls-6" d="M96.44,66.53H96a5.82,5.82,0,0,1-2.79-.71L92,65.17a9.19,9.19,0,0,1-4.8-8v-5.2c0-4.63,4.67-6.73,9-6.73s9,2.11,9,6.73v5.2a9.19,9.19,0,0,1-4.8,8l-1.19.65A5.82,5.82,0,0,1,96.44,66.53Zm-.22-19.35c-3.37,0-7,1.48-7,4.73v5.2A7.19,7.19,0,0,0,93,63.41l1.19.65a3.81,3.81,0,0,0,1.83.47h.45a3.81,3.81,0,0,0,1.83-.47l1.19-.65a7.19,7.19,0,0,0,3.76-6.29v-5.2C103.22,48.67,99.59,47.19,96.22,47.19Z"/><path class="cls-6" d="M96.28,60.14a1.84,1.84,0,0,1-1.14-.49A1,1,0,0,1,96.29,58a1,1,0,0,1,1.19.23,1,1,0,0,1-.06,1.4A1.84,1.84,0,0,1,96.28,60.14Z"/><path class="cls-6" d="M96.2,62.78a4,4,0,0,1-2.09-.45A1,1,0,0,1,93.63,61a1,1,0,0,1,1.31-.47l.12.06a2.06,2.06,0,0,0,1.15.21c.86,0,1.06-.13,1.19-.21l1.09,1.68A3.74,3.74,0,0,1,96.2,62.78Z"/><path class="cls-6" d="M93,57.93a1.36,1.36,0,1,1,1.36-1.36A1.36,1.36,0,0,1,93,57.93Zm0-2a.64.64,0,1,0,.64.64A.64.64,0,0,0,93,55.93Z"/><path class="cls-6" d="M101.66,55.22a1,1,0,0,1-.45-.11A4.47,4.47,0,0,0,98.45,55a1,1,0,1,1-.61-1.91,6.43,6.43,0,0,1,4.26.27,1,1,0,0,1-.45,1.89Z"/><path class="cls-6" d="M90.74,55.18a1,1,0,0,1-.49-1.87,5.44,5.44,0,0,1,4.4-.15,1,1,0,0,1-.8,1.83,3.45,3.45,0,0,0-2.62.07A1,1,0,0,1,90.74,55.18Z"/><path class="cls-6" d="M99.44,57.93a1.36,1.36,0,1,1,1.36-1.36A1.36,1.36,0,0,1,99.44,57.93Zm0-2a.64.64,0,1,0,.64.64A.64.64,0,0,0,99.44,55.93Z"/><circle class="cls-6" cx="92.99" cy="56.57" r="1"/><circle class="cls-6" cx="99.44" cy="56.57" r="1"/><g class="cls-1"><circle class="cls-16" cx="100.52" cy="59.8" r="1.43"/></g><g class="cls-1"><circle class="cls-16" cx="91.92" cy="59.8" r="1.43"/></g><g class="cls-1"><path class="cls-10" d="M88.23,52.16a13.19,13.19,0,0,0,13.11-2.53c.92,3.29,2.86,2.69,2.88,2.69V50.44s-2,.83-2.94-2.47c-6,5.06-13,2.21-13,2.21Z"/></g><path class="cls-12" d="M88.18,50.15a12.78,12.78,0,0,0,13-2.36,2.53,2.53,0,0,0,2.94,2.71l.73,0c-.22-7.45-17.11-7.47-17.33-.6Z"/><path class="cls-6" d="M92.92,52a13.66,13.66,0,0,1-5.08-.94l-.64-.28A1,1,0,0,1,88,49l.64.28a11.68,11.68,0,0,0,12-2.2,1,1,0,0,1,1.66.75,1.75,1.75,0,0,0,.45,1.36,2,2,0,0,0,1.36.36l.45,0a1,1,0,0,1,.17,2l-.41,0a3.93,3.93,0,0,1-2.88-.84,3.14,3.14,0,0,1-.79-1.08A13.21,13.21,0,0,1,92.92,52Z"/><path class="cls-6" d="M104.19,54.13a1,1,0,0,1-1-1V51.44a5.69,5.69,0,0,0-.05-.8,1,1,0,0,1,2-.28,7.73,7.73,0,0,1,.07,1.07v1.68A1,1,0,0,1,104.19,54.13Z"/><path class="cls-6" d="M88.23,53.72a1,1,0,0,1-1-1V51.44a7.81,7.81,0,0,1,.13-1.4,1,1,0,1,1,2,.36,5.91,5.91,0,0,0-.09,1v1.28A1,1,0,0,1,88.23,53.72Z"/></svg>